<?xml version="1.0" encoding="UTF-8" standalone="no"?>
<svg
   version="1.1"
   width="595.27557pt"
   height="841.88977pt"
   id="svg10"
   viewBox="0 0 595.27557 841.88977"
   sodipodi:docname="EmannCode01 Logo.cdr"
   xmlns:inkscape="http://www.inkscape.org/namespaces/inkscape"
   xmlns:sodipodi="http://sodipodi.sourceforge.net/DTD/sodipodi-0.dtd"
   xmlns="http://www.w3.org/2000/svg"
   xmlns:svg="http://www.w3.org/2000/svg">
  <defs
     id="defs10" />
  <sodipodi:namedview
     id="namedview10"
     pagecolor="#ffffff"
     bordercolor="#000000"
     borderopacity="0.25"
     inkscape:showpageshadow="2"
     inkscape:pageopacity="0.0"
     inkscape:pagecheckerboard="0"
     inkscape:deskcolor="#d1d1d1"
     inkscape:document-units="pt" />
  <g
     id="Layer1000">
    <path
       d="M 354.1765,184.4773 A 118.3797,172.8179 0 0 1 472.5562,357.2953 118.3797,172.8179 0 1 1 354.1765,184.4773 Z"
       style="fill:#000000;fill-rule:evenodd;stroke:#000000;stroke-width:0.5;stroke-linecap:butt;stroke-linejoin:miter;stroke-dasharray:none"
       id="path1" />
    <path
       d="M 193.4513,244.6781 A 122.9395,146.2301 0 0 1 316.3908,390.9082 122.9395,146.2301 0 1 1 193.4513,244.6781 Z"
       style="fill:#663333;fill-rule:evenodd;stroke:#000000;stroke-width:0.5;stroke-linecap:butt;stroke-linejoin:miter;stroke-dasharray:none"
       id="path2" />
    <g
       id="Layer1001">
      <path
         d="m 132.7882,489.125 c -0.5616,0 -1.6328,-0.4995 -2.2553,-0.6444 0,-2.0344 -0.3868,-1.3721 0.4269,-2.9556 l 2.2753,-3.3628 c 0.3484,-0.3961 0.5392,-0.6849 0.8799,-1.0532 l 4.0327,-3.538 c 3.6152,-2.6883 8.5498,-5.1847 12.9061,-6.2628 1.0972,-0.2715 1.9749,-0.4833 3.0426,-0.6623 3.655,-0.613 6.75,-0.7237 10.3643,-1.0875 0.6918,-0.0696 2.008,0.6446 2.691,0.9891 l 2.6854,1.1806 c -1.277,2.4131 -6.8412,7.3438 -8.812,8.1016 -0.696,0.2677 -2.1891,0.276 -2.9718,0.4109 -2.1048,0.3627 -3.7526,0.8073 -5.4754,1.4513 -1.6734,0.6254 -3.3096,1.1982 -4.8098,1.9556 l -6.5948,3.5534 c -2.2178,1.3274 -2.2264,1.0424 -5.2779,1.4874 -0.8072,0.1178 -2.1744,0.4367 -3.1072,0.4367 z m -12.2423,2.4027 v -1.1895 c 0.1164,-1.5359 0.6187,-3.0273 0.9313,-4.1479 0.436,-1.5626 2.8935,-9.3725 3.8385,-10.0145 0.2576,-0.1748 0.6416,-0.3799 0.9209,-0.5289 1.0586,-0.5645 3.0783,-1.4058 3.8781,-2.2431 0.4146,-0.4341 0.6108,-0.8563 1.1121,-1.1432 l 0.5694,-0.2358 c 3.4531,-1.3677 6.5273,-3.5883 9.4361,-5.8667 5.1759,-4.0543 11.7345,-5.2645 18.3394,-6.1452 0.5546,-0.074 1.02,-0.0164 1.5672,-0.0436 0.7024,-0.035 0.5861,-0.1272 1.2887,-0.1611 1.9509,-0.0942 3.6956,-0.3225 5.6375,-0.3225 v -0.9665 c 1.12,0 2.0513,-0.2205 3.1536,-0.3902 4.5938,-0.707 3.1678,-0.2081 4.956,-3.9035 l 1.6236,-3.6922 c 0.7413,-1.773 0.3819,-1.1252 0.6442,-2.8995 0.4361,-2.9473 -0.7064,-1.6764 1.4252,-3.8905 0.3825,-0.3973 0.4384,-0.5807 0.8003,-0.9719 0.3287,-0.3554 1.6186,-1.5176 1.7587,-1.7849 0.2677,-0.5109 0.3088,-2.3147 0.488,-3.0559 0.2458,-1.0165 0.4436,-1.8546 0.7549,-2.789 l 1.0403,-2.5033 c 0.3168,-0.7238 0.3379,-2.171 0.4433,-3.1006 0.4857,-4.2891 3.2992,-22.094 4.1733,-24.0163 l 3.3285,-7.3027 c 1.9124,-3.9777 5.9435,-11.5767 5.707,-15.5804 -0.0469,-0.7945 -0.1529,-0.7243 -0.6124,-1.1617 -3.5812,-3.4099 -1.4058,-2.8403 -7.5257,-1.1529 -1.1733,0.3234 -1.3248,0.4043 -2.066,1.1556 l -3.3863,2.8958 c -6.5402,4.8388 -6.7431,3.4452 -8.3313,4.2332 -0.5759,0.2858 -2.6889,2.527 -3.1729,3.1094 -0.8029,0.9659 -0.4018,0.9088 -1.8169,1.2435 -0.9952,0.2353 -4.3182,1.1978 -4.9721,1.1879 -1.6549,-0.0247 -3.5369,-0.8927 -5.1788,-1.0293 0,-0.8439 0.6086,-4.0315 1.1568,-4.6422 l 5.0935,-4.2493 c 0.8145,-0.681 0.8223,-1.6345 1.527,-2.3392 0.804,-0.8044 2.9965,-1.0615 3.8003,-1.8375 0.7169,-0.6923 0.5321,-1.836 1.5759,-2.2899 2.2558,-0.9812 4.478,-1.77 6.8872,-2.4556 2.0591,-0.5862 3.9524,-0.9816 6.0218,-1.5493 1.9345,-0.5306 3.8789,-1.0801 5.7415,-1.8293 l 5.084,-2.4868 c 0,-7.4679 3.6396,-10.1431 4.0967,-12.1725 0.1323,-0.5873 0.3455,-1.4075 0.3935,-1.8619 0.5698,-5.4045 -1.2585,-4.8613 0.6651,-7.55 0.4395,-0.6144 0.8069,-0.7517 0.7005,-1.4874 -0.2591,-1.7898 -1.1845,-3.6898 -1.1845,-5.601 1.125,-0.5951 1.7747,-1.6599 2.8995,-2.2551 0,-2.7528 -0.937,-2.56 4.5684,-4.9354 1.1798,-0.5091 0.6189,-0.2157 1.3552,-1.0612 0.6499,-0.7462 1.7576,-1.7304 2.2109,-2.6215 0.2586,-0.5086 0.235,-1.395 0.3324,-2.0841 0.2772,-1.9613 -0.0574,-2.1228 -0.7703,-3.7598 -0.3944,-0.9056 -0.4528,-0.6659 -1.4342,-0.9821 -5.3751,-1.7311 -3.8724,-1.8599 -9.7355,-0.9157 -5.4415,0.8765 -2.5439,-0.0833 -7.4616,-1.5392 -1.2664,-0.3749 -1.9263,-1.0351 -2.9554,-1.877 -0.9924,-0.812 -1.6248,-1.6946 -2.9446,-1.8879 -7.8587,-1.1512 -15.0043,0.555 -21.9994,1.9986 l -5.6464,1.6023 c -3.3022,1.1949 -2.884,0.7955 -4.6106,2.6381 -0.9129,0.9741 -1.2136,1.8278 -2.339,2.6547 -0.9772,0.718 -1.7835,1.3359 -2.7625,2.0699 -0.9779,0.7331 -1.8067,1.3303 -2.7857,2.0466 -0.6825,0.4994 -0.7327,0.464 -1.0835,1.3327 -0.2447,0.6058 -0.4924,1.1496 -0.7287,1.6876 -0.8111,1.8472 -0.6202,2.3641 -0.6545,4.3504 -0.0238,1.3822 -0.2524,1.3649 0.9454,1.471 0.4543,0.0402 1.789,0.2616 2.105,0.2333 0.5824,-0.0523 9.246,-3.4948 10.4631,-3.9883 1.709,-0.6931 1.9278,-0.4726 3.6877,-0.0975 1.9468,0.4148 2.8066,0.2567 3.3766,1.4559 0.6602,1.3892 0.8518,1.9977 0.8518,3.9805 -2.964,1.5685 -5.9693,3.0163 -9.2496,3.9592 -0.766,0.2201 -1.3065,0.3881 -2.039,0.5382 -1.3407,0.2751 -2.9204,0.6994 -4.3397,0.8149 -5.7986,0.4722 -6.3424,-1.6805 -8.3653,-1.776 -3.4136,-0.1612 -5.8835,-0.0246 -8.8673,-1.6033 0.0219,-0.9825 0.3435,-2.0793 0.5044,-3.0395 0.0717,-0.4281 0.1693,-1.1062 0.2648,-1.507 0.1964,-0.8238 0.1736,-0.6081 1.1638,-0.6081 0.1026,-1.2311 2.0656,-3.7962 2.7357,-4.6742 0.3103,-0.4067 0.5228,-0.5993 0.8784,-1.0546 0.2799,-0.3584 0.5006,-0.6556 0.7827,-0.9891 l 1.765,-1.9398 c 1.8183,-1.781 1.5869,-2.4823 2.558,-4.8519 0.3974,-0.9699 0.4711,-1.7397 1.4754,-2.2294 l 17.353,-8.2594 c 1.8152,-0.8826 0.9045,-2.1489 2.7106,-2.7661 l 4.0284,-1.4484 c 3.1681,-1.198 5.2227,0.5527 7.8541,-0.3569 0.5088,-0.1758 0.8482,-0.2848 1.3305,-0.4456 4.3393,-1.4459 2.296,-1.0873 5.9795,-1.106 3.0403,-0.0152 7.138,-0.2895 9.9802,-0.9754 1.55,-0.374 2.597,-1.6944 4.1011,-1.3565 l 10.2822,2.4529 c 2.0353,0.4315 7.7943,1.5537 9.8875,0.945 1.1653,-0.3388 5.2691,-7.6398 5.8606,-8.9591 0.6696,-1.4931 0.1736,-1.0846 1.3263,-2.3785 2.612,-2.9315 5.6846,-5.5075 9.0744,-7.517 0.4542,-0.2692 0.6476,-0.3853 1.1419,-0.6301 0.8408,-0.4167 1.5398,-0.7456 2.4233,-1.1206 2.7638,-1.1728 4.0041,-0.8813 6.0339,-1.3758 0.6186,-0.1506 0.2283,0.004 0.6737,-0.2928 1.0923,-0.7283 2.1971,-1.8995 3.5546,-2.7277 1.5542,-0.948 3.1255,-1.9512 4.7881,-2.6217 3.9314,-1.585 6.4995,-2.6985 10.7702,-3.8882 2.0587,-0.5736 2.1162,-0.5367 3.06,-2.4168 0.2013,-0.4011 0.3682,-0.735 0.5911,-1.1807 0.5225,-1.0449 1.1952,-2.9406 2.2557,-3.3824 l 6.2659,-2.7547 c 1.8175,-0.7319 3.6553,-1.3339 5.5851,-1.8438 1.3719,-0.3626 3.2885,1.8767 4.6327,2.2355 0,1.1642 0.0841,1.9939 0.1474,2.913 0.0539,0.7786 -0.1329,0.8278 0.2091,1.4018 0.4488,0.7531 1.8438,1.831 1.7118,2.7241 -0.2103,1.4243 -1.6279,2.9408 -1.579,4.5482 l -0.1465,2.6088 c -0.1482,0.6975 -0.3917,1.8183 -0.7806,2.2802 -0.402,0.4776 -0.9866,0.9739 -1.4522,1.4471 -1.0468,1.0633 -2.5574,1.4482 -3.964,2.1573 -1.4562,0.734 -2.5577,1.6098 -4.2908,1.6691 -1.8675,0.0639 -3.9383,0.3019 -5.8465,0.0405 l -5.5939,-0.366 v -1.933 c -0.7629,-0.0171 -2.0901,-0.3261 -2.7851,-0.4365 -1.0887,-0.1729 -1.7875,-0.2014 -2.0474,-1.1744 -1.3257,0 -1.8959,0.3221 -3.2216,0.3221 -0.5051,2.1683 -1.2819,2.2631 -3.2215,2.7385 -2.8893,0.7082 -5.6135,1.9247 -8.1673,3.4305 -0.9018,0.5318 -2.0561,2.436 -2.3032,3.496 h 0.6444 l -1.5626,1.8201 c -0.243,0.2867 -0.2403,0.3391 -0.4956,0.6321 -3.0787,3.5332 -1.7584,2.9706 -5.099,3.9215 -0.6842,0.1946 -1.0837,0.3021 -1.7584,0.4967 -1.7395,0.5019 -1.7741,0.2133 -2.3881,1.9711 -0.3027,0.8664 -0.3765,0.7523 0.1481,1.5009 1.6784,2.3955 0.5949,1.4056 1.116,3.241 0.242,0.8518 0.6219,0.5934 1.1347,1.1204 0.4918,0.5057 1.7281,3.6875 2.1394,4.4649 0.3672,-0.176 1.7366,-0.3531 2.3297,-0.4292 1.1915,-0.153 0.902,0.344 1.7627,0.6861 0.7083,0.2815 3.8703,0.3552 4.9331,0.3828 1.2597,0.0327 3.5049,0.006 4.7286,0.5871 0.6733,0.3198 1.0036,0.585 1.6514,0.9258 1.352,0.7111 5.4413,0.7475 7.146,0.7469 1.7783,-4e-4 3.6744,0.2327 5.0376,0.0441 1.5838,-0.2189 3.4217,-0.0439 5.0634,-0.2524 4.544,-0.5773 9.0776,-1.3611 13.5368,-2.2492 1.407,-0.2803 2.9659,-0.5883 4.3905,-0.9252 4.4942,-1.0624 3.5066,-0.4867 7.2242,-3.2462 l 4.8062,-3.0868 c 1.6319,-0.9806 3.3653,-1.9134 5.2714,-2.4604 0.9271,-0.2662 1.3168,-0.0845 1.7692,-0.9694 1.1522,-2.2535 1.8139,-2.0933 4.0572,-3.8359 2.8472,-2.2117 3.8635,-4.8739 5.3817,-5.0886 1.5896,-0.2246 2.9998,-0.4623 4.6333,-0.7037 0.8889,-0.1313 0.9739,0.1048 1.813,0.5434 0.8525,0.4455 2.7168,1.2659 3.3207,1.995 2.0703,2.4994 1.9539,2.1887 1.2564,5.3227 -0.9962,4.4758 -1.6333,8.8602 -2.5258,13.4214 -0.5135,2.6247 0.1101,1.8559 -1.8362,3.3228 -1.3511,1.0186 0.4751,1.1164 -0.8456,1.5553 -0.5721,0.1903 -1.5997,0.2122 -2.1322,0.1819 -4.9073,-0.2774 -3.4866,0.0196 -6.1293,-4.3429 -0.6723,-1.11 -1.143,-2.2844 -1.7406,-3.414 -2.479,0 -2.7715,0.7517 -4.8314,1.7732 -3.1546,1.5643 -6.2141,2.6719 -9.7275,3.4811 -1.7245,0.3972 -3.8196,0.6134 -5.5853,0.8579 -1.9711,0.273 -3.7391,0.5688 -5.7434,0.861 -1.7354,0.2533 -3.7838,0.3783 -5.4687,1.1359 -0.7533,0.3386 -1.7669,0.4691 -2.0582,1.3245 -0.8719,2.561 0.2648,1.7884 -6.9877,2.6771 -3.8957,0.4774 -7.7529,1.1158 -11.491,1.718 -1.2719,0.2047 -1.4066,0.4983 -2.6594,0.3006 l -8.9129,-0.7604 c -2.3645,0.0121 -4.1308,-0.16 -6.4443,-0.16 -2.1478,0 -4.2956,0 -6.4434,0 -3.2691,0 -3.0644,-0.4936 -5.6298,0.9744 -1.1664,0.6675 -2.9411,2.086 -4.3572,2.086 0.8021,3.4434 1.7058,1.198 0.3923,5.8692 -1.5298,5.4392 -3.0359,2.7558 -0.8293,8.2599 0.3748,0.9349 0.6432,1.7359 1.0133,2.6915 3.0054,7.7609 1.787,7.1997 -1.4189,10.3653 -1.082,1.0683 -1.1026,0.4338 -1.4818,2.3843 l -1.104,6.4666 c -0.1944,1.1632 -0.5557,1.9497 0.1084,3.0435 0.892,1.4685 0.5147,1.0726 2.4688,1.3972 4.5878,0.762 9.6084,0.9627 14.2305,0.6081 5.8408,-0.4481 4.1964,-0.1475 9.5525,-1.7234 5.4666,-1.6084 3.6636,-2.4906 7.6146,-3.8222 0.9393,-0.3166 1.7751,-0.6427 2.7052,-0.9998 1.8742,-0.7193 3.7418,-1.7094 5.7132,-1.5057 3.5581,0.3682 2.9143,0.2519 6.0781,-0.8782 1.3725,-0.4903 1.3664,-0.6516 3.2868,-0.5896 l 3.5387,0.1667 c 0.7976,-1.5072 1.9429,-3.007 2.7386,-4.5104 2.9221,0 5.3779,-0.1611 8.3438,-0.1579 l 0.1935,2.252 c 0.84,-0.0188 1.5422,-0.3462 2.351,-0.5485 l 6.4759,-1.7393 c 7.5095,-1.8631 15.0906,-4.0018 22.8132,-5.0541 0.9241,-0.1259 1.5834,-0.1826 2.5046,-0.2338 0.609,-0.0337 1.823,-0.1047 2.5378,-0.2005 3.1719,-0.4255 7.2458,-0.1553 10.5146,0.0443 0.8889,0.0542 1.7648,0.1982 2.5924,0.319 2.4067,0.3513 3.7475,-1.7486 6.3656,-1.0623 1.5646,0.4101 2.9796,0.6972 4.54,1.0983 2.3436,0.6023 3.51,-0.2502 4.8224,-0.003 2.0852,0.3933 -0.3655,0.9903 4.3702,0.4312 1.0334,-0.1222 2.8555,-1.2519 3.4048,-2.0721 -2.4771,0 -4.5836,-1.2913 -6.9738,-1.3554 -0.4966,-0.0131 -0.2565,0.1258 -0.8434,-0.007 l -4.0621,-1.8995 c -0.5271,-0.7102 -1.1014,-1.0778 -1.2936,-2.0177 l 0.6084,-0.6799 c 0.4237,0.0985 0.4734,0.1465 0.8054,0.3221 0.2146,-0.3204 0.2934,-0.4464 0.4832,-0.8054 0.6758,0.3242 1.5795,0.4812 2.2553,0.8054 0.2972,-0.4441 0.6671,-0.6364 1.086,-1.008 1.3605,-1.2072 1.7932,-1.5987 2.4819,-3.4782 0.3015,-0.8225 0.8002,-2.0767 1.2612,-2.766 0.6992,-1.045 0.8065,-1.6611 2.4196,-1.2851 0.0657,-0.7888 -0.0521,-0.2067 0.2495,-0.556 l 0.4094,-0.3961 c 0.5045,-0.745 0.3712,-1.5085 1.2327,-1.9889 0.3207,-0.179 0.3129,-0.1408 0.5669,-0.2384 0.7333,-0.2818 1.305,-1.2386 1.8906,-1.8145 0.0236,-0.0232 0.0553,-0.0587 0.0786,-0.0823 0.5424,-0.5487 0.3679,-0.3587 1.1088,-0.6633 0.6133,-0.252 0.5846,-0.2389 0.5846,-1.026 -0.7357,0.3529 -2.319,-0.1436 -3.757,-0.0839 -0.8761,0.0363 -2.1013,-0.9713 -2.8473,-1.3658 v -1.4498 c 1.8632,-0.4342 2.1033,0.5898 3.3557,0.5833 3.0892,-0.0163 3.0705,0.5598 5.6725,1.0198 1.3004,0.23 3.5134,1.5888 4.1804,2.585 -0.1811,0.6786 -0.7559,1.0336 -1.1527,1.4244 -0.6802,0.6697 -0.1517,0.746 -1.2182,1.1981 -1.1376,0.4819 -0.8625,1.4396 -2.6225,2.3711 0,2.2511 -1.9273,2.6657 -2.0941,4.6713 -1.9671,0.1637 -2.3929,1.0706 -2.9016,2.7363 -0.8255,2.7029 -0.8628,0.7186 -2.7686,2.7083 -0.8221,0.858 -1.7593,0.3409 -2.7062,0.9988 1.5831,0.3687 3.1324,1.1667 4.5656,1.8778 0.5648,0.2803 1.0488,0.3505 1.2334,0.8605 0.5477,-0.2897 0.7346,-0.491 1.2551,-0.839 0.7254,-0.4847 1.6632,-0.9965 2.2743,-1.5916 0.5649,-0.5499 0.0611,-0.7211 0.7532,-1.1798 1.0816,-0.7165 9.9873,-4.3728 10.999,-4.787 0.9157,-0.3752 1.8269,-0.7749 2.8474,-1.1798 1.0915,-0.4332 7.868,-1.7486 9.5772,-2.1818 1.1751,-0.2978 5.5833,-1.161 6.2406,-1.6524 0.8329,-0.6225 1.1488,-1.5671 2.2416,-1.7855 4.2906,-0.8573 7.0809,0.8791 10.3162,0.3293 0.9532,-0.1621 2.5319,-0.3535 3.5988,-0.4306 1.4106,-0.1019 2.0247,0.0602 3.2587,0.2736 1.6189,0.2801 5.2813,1.0755 6.7387,1.1081 1.1666,0.0258 2.2617,-0.4258 3.5322,-0.1035 l 3.0494,0.8194 c 0.9509,0.2085 4.8685,-0.6893 6.9126,-0.4716 0.3681,0.0391 1.328,0.2163 1.7579,0.3359 0.5841,0.1627 0.7044,0.3739 1.126,0.8073 1.3415,1.379 2.1575,3.3239 2.7179,5.1751 0.4829,1.5949 0.5158,1.4838 -0.2733,2.8365 -0.7198,1.2336 -0.6189,1.3316 -1.8105,2.2167 -2.3367,1.7359 -4.7134,2.9592 -7.196,4.4019 -0.8381,0.4871 -1.7702,0.8967 -2.6157,1.4115 -0.8021,0.4884 -1.6495,0.9016 -2.4948,1.3712 l -3.7885,2.1716 c -0.4454,0.3049 -0.6889,0.5338 -1.2616,0.6714 l -9.8893,2.0349 c -1.4644,0.3067 -1.6645,0.037 -3.0482,-0.363 -2.7557,-0.7962 -3.5272,-1.3614 -6.4786,-0.953 l -10.6096,1.3107 c -3.4727,0.4808 -4.2731,-0.3126 -7.171,-0.0835 -3.9349,0.3109 -10.599,1.886 -14.2551,1.3523 -2.4421,-0.3563 -4.7368,-0.7334 -7.1678,-0.3849 -4.0198,0.5765 -12.6282,1.5261 -15.3609,4.1303 -0.7168,0.6834 -0.7545,1.9124 -1.7341,2.2929 -0.4901,0.1903 -0.9359,0.2713 -1.4968,0.4363 -0.5721,0.1686 -0.8784,0.3086 -1.4596,0.4733 -1.7003,0.482 -1.613,0.2284 -2.4777,1.5495 -1.0496,1.6033 -1.859,3.2459 -3.5054,4.2263 -0.6197,0.3691 -1.8809,1.2389 -2.4863,1.3799 0,2.2694 -1.4438,5.2311 -2.1872,6.9946 -2.2651,5.3735 -0.8734,4.1721 -0.8734,7.3417 -2.8377,1.9003 -2.5519,2.8274 -3.2496,5.771 -0.2355,0.9945 -0.1242,0.7728 -0.8152,1.4401 -1.1429,1.1034 -2.0377,2.545 -3.3449,3.4204 0.5571,1.053 1.203,1.3647 0.7093,2.7988 -0.6088,1.7686 -0.0757,1.2924 -1.4638,2.4067 -0.8006,0.6427 -1.5394,0.9515 -1.8935,1.9728 -0.6864,1.98 0.8687,3.128 -0.3711,4.4588 -1.7207,1.8472 -1.4203,1.4332 -1.7649,4.0363 -0.3006,2.2703 -0.4315,1.3456 0.3973,3.0623 0.3227,0.6686 -0.273,2.269 -0.4458,3.0104 1.091,1.6292 0.8054,0.5087 0.8054,3.5439 1.9575,1.0357 2.057,1.2711 2.2404,3.2362 0.4138,4.4309 0.9776,2.7313 -1.1128,6.912 -0.3175,0.6349 -1.1567,1.7709 -0.9764,2.4254 0.3499,1.2695 2.1122,3.9911 2.1634,5.0223 0.0307,0.6147 -1.0797,1.0504 -1.3481,2.0561 0.6208,0.1446 0.9033,0.356 1.4497,0.4832 -0.2355,0.8819 -0.7854,0.5921 -0.8175,1.921 l 0.3054,5.1957 c 0.2423,0.454 2.3163,2.4378 3.3599,4.533 0.3369,0.6762 0.5719,1.1528 0.9109,1.8274 0.7397,1.4713 1.3118,3.069 2.1074,4.4969 1.3876,2.4902 0.9374,1.7151 3.4069,3.1976 0.6376,0.3826 1.1509,0.606 1.5569,1.1815 l 3.1843,4.7088 c 1.8091,2.7155 2.8512,2.8689 5.7986,4.8327 2.1957,1.4628 4.7371,2.6036 7.3159,3.3157 1.1752,0.3246 1.1196,0.0427 1.7788,0.9595 l 2.7816,3.823 c 0.539,0.7248 0.5005,1.1194 1.4589,1.2794 2.0695,0.3454 6.0409,0.5556 7.6391,1.5426 3.4634,2.1393 2.4588,1.5251 6.4038,1.4764 2.6818,-0.0331 7.5274,-0.1054 10.1158,-0.5154 0.4648,-0.0736 1.4113,-0.4435 1.9265,-0.6509 2.0179,-0.8123 1.8231,-0.6318 2.8347,-2.4811 0.9284,-1.6974 0.4465,-0.9467 3.24,-2.0757 0.5247,-0.2119 1.5822,-0.5344 1.9613,-0.777 l 4.0502,-3.8429 c 2.2267,-2.2285 4.7027,-4.2341 6.9283,-6.4415 1.3413,-1.3302 2.0135,-3.319 2.8885,-5.0046 0.5192,-1.0004 0.2846,-1.0335 0.4651,-2.2732 0.2293,-1.5736 -0.2338,-3.4851 0.5383,-4.7775 l 2.7543,-5.1433 c 0.9197,-1.7656 -0.3387,-1.5242 -0.8088,-3.5426 0.801,-1.1963 1.5772,-2.3871 2.4162,-3.5439 0.614,-0.8464 0.7626,-0.9178 0.422,-2.1913 -0.1187,-0.4445 -0.1963,-0.7219 -0.2912,-1.161 -0.0843,-0.389 -0.064,-0.8162 -0.3558,-1.0939 -0.3434,-0.3271 -3.8186,-1.2038 -4.5941,-1.3661 -1.7068,-0.3575 -3.3885,-0.4577 -5.1445,-0.6548 -1.5515,-0.1743 -1.2051,-0.351 -2.4421,0.3438 -0.6204,0.3485 -1.1821,0.6737 -1.8381,1.0612 -0.824,0.4869 -1.277,0.5036 -1.7115,1.3491 l -1.9457,4.0144 c -0.4665,1.1917 -0.3553,0.8864 -1.4827,1.4168 l -3.9733,1.8257 c -0.4667,-0.882 -1.2132,-1.6775 -1.8038,-2.5454 l -1.8318,-2.5175 c -1.0791,-1.4347 -0.6847,-1.1893 -2.7151,-1.6341 -1.0278,-0.225 -2.5068,-0.6912 -3.4752,-0.7129 -0.1004,-1.2067 -0.9412,-2.5711 -0.7888,-3.9987 0.0683,-0.6385 0.2306,-1.402 0.305,-2.1229 0.2281,-2.2119 0.1206,-1.4747 2.0624,-2.7699 1.9145,-1.277 2.884,-1.3659 5.2833,-1.9655 2.2629,-0.5657 1.6743,-0.4127 4.0943,-0.4139 1.0274,-5e-4 1.3206,-0.1609 2.246,-0.1723 0.8013,-0.01 1.619,0.006 2.4227,0.006 3.2336,0 6.0257,-0.1611 9.3428,-0.1611 0.2997,0.4475 0.5445,0.7496 0.8701,1.2241 0.1967,0.2869 0.2606,0.4208 0.4513,0.6764 l 0.5108,0.4554 c 1.0306,0.4036 5.9928,0.7599 7.4192,0.9572 3.4815,0.4819 3.1746,0.1107 5.3391,2.8761 1.815,2.3186 3.2473,5.2815 4.0616,8.1806 0.4691,1.67 0.4143,1.7442 0.1265,3.6036 l -1.1764,7.0387 c -0.6472,3.7857 -1.409,7.8263 -3.4558,10.8805 -0.3905,0.5831 -0.5439,0.6312 -0.9763,1.1177 l -8.2974,8.133 c -2.1244,2.1261 -3.859,4.2204 -5.2488,6.9936 -1.4244,2.8426 -0.6088,3.3209 -2.983,5.2322 -0.8516,0.6855 -1.3856,1.2576 -2.1579,2.03 l -3.4537,3.7952 c -0.6457,0.7728 -0.7129,0.9563 -1.8005,1.2599 l -7.8228,2.3331 c -0.9959,0.296 -0.7208,0.1191 -1.6999,0.0672 -4.346,-0.2304 -1.5943,-0.1328 -4.1905,1.6055 l -1.3229,-1.0934 c -0.7205,-0.4279 -5.5355,-0.191 -6.5714,-0.1963 l -2.113,0.1653 c -1.9039,0.0489 -0.5998,-2.1497 -4.9734,-1.1307 -1.2764,-2.412 -1.1518,-1.8974 -4.1166,-2.3268 -0.6014,-0.0871 -0.8947,-0.0611 -1.5201,-0.0907 l -4.3498,-0.3216 c -0.5186,-0.0274 -1.0856,0.0347 -1.6031,-0.008 -3.0243,-0.2479 -9.0917,-1.1725 -11.2416,-2.9337 -2.8694,-2.3508 -1.483,-2.5376 -5.744,-3.5987 -1.7644,-0.4395 -3.3146,-0.7551 -5.1582,-1.124 -2.9607,-0.5921 -2.3654,-0.2881 -4.1609,-2.1213 -0.9693,-0.9901 -0.6453,-0.9452 -2.2467,-0.7127 -1.5226,0.2212 -1.2587,0.1149 -2.2239,-0.6155 -1.3475,-1.0196 -2.1748,-1.9832 -3.9339,-2.3485 -2.5735,-0.5343 -0.8687,-0.316 -1.8447,-1.3769 -0.7214,-0.7842 -3.2309,-1.4144 -4.1367,-2.1455 -0.7367,-0.5949 -3.1396,-4.3274 -3.9617,-5.3812 -1.0106,-1.2958 -0.4193,-0.7346 -0.6923,-2.5368 -0.1077,-0.7118 0.0148,-1.9132 0.1355,-2.7393 0.5232,-3.5814 0.5355,-1.7705 -0.9369,-4.5188 -0.3536,-0.66 -0.1428,-0.4515 -0.1048,-1.1877 0.0674,-1.3031 -0.6929,-2.6505 -0.7937,-3.8609 -0.4829,0.1125 -0.9427,0.2803 -1.3168,0.4551 -0.7178,0.3356 -1.116,0.9985 -1.7047,1.5169 l -1.7703,1.6124 c -0.8053,0.7595 -0.7835,0.8196 -1.2614,1.9604 -0.4406,1.0519 -0.7827,2.6752 -1.6712,3.3222 -2.5018,1.8223 -2.6265,2.0131 -5.6791,2.5361 -0.804,0.1378 -0.5514,0.0236 -1.0616,0.5493 -2.4343,2.5066 -4.932,5.193 -7.7624,7.2183 -0.7749,0.5544 -2.0287,1.6971 -2.9429,1.8896 l -5.5963,0.8468 c -0.3083,-0.0797 -2.164,-2.2355 -2.2551,-2.5772 -1.9305,0 -7.4468,0.5864 -8.7055,0.168 -4.2309,-1.4067 -9.328,-1.3925 -13.9611,-1.9861 -2.9305,-0.3753 -2.6952,-0.0812 -5.2524,-1.5131 -1.3373,-0.7488 -1.4045,-1.0897 -3.56,-0.7638 -1.2801,0.1935 -3.0826,0.2298 -4.4425,0.229 -1.5045,-9e-4 -3.0095,-0.002 -4.514,0.004 -1.1857,0.005 -4.3958,-0.226 -5.4358,-0.8466 -0.2557,-0.1526 -0.0384,0.002 -0.265,-0.218 -0.3516,-0.3408 -0.7863,-0.7993 -1.1,-1.1552 -0.283,-0.3214 -0.283,-0.4019 -0.5662,-0.7224 -2.5243,-2.8571 -1.504,-2.1703 -5.2399,-2.6533 l -8.008,-1.0128 c -0.2051,-0.4275 -0.1469,-0.1723 -0.1609,-0.8053 -3.2688,0 -5.7377,-0.4738 -8.837,-0.9892 -0.7823,-0.1301 -2.0057,-0.2094 -2.588,-0.6335 l -7.2607,-5.626 c -0.0554,0.6659 -0.4711,1.6809 -0.6501,2.4105 -0.1922,0.7831 -0.2898,1.9707 -0.2008,2.6255 0.2158,1.5896 -0.3093,1.2652 -0.6917,2.281 -0.5404,1.4353 -0.3826,3.5574 -1.4005,4.7206 l -4.237,4.9447 c -0.3398,0.4344 -0.414,0.4825 -0.7505,0.8602 -2.1682,2.4324 -1.8984,3.3429 -4.5935,6.0379 -7.1582,7.1581 -12.0799,7.419 -21.5761,9.0297 -3.7071,0.6288 -6.1879,-0.1007 -11.2325,1.0097 -1.783,0.3925 -3.2111,0.7713 -4.8918,1.2294 -3.2075,0.874 -6.2301,1.768 -9.929,2.3133 -2.4385,0.3596 -5.8391,0.7055 -8.0982,-0.2996 -1.1958,-0.532 -2.3457,-1.9344 -3.2306,-2.8906 -0.5157,-0.5572 -1.0658,-0.9716 -1.1658,-1.7471 z m 179.929,-78.2726 c 0,1.7448 0.2164,3.6221 0.0236,5.3393 -0.2682,2.3875 0.2253,5.323 -1.1512,8.1916 1.0571,0.5594 1.6765,1.5321 2.7385,2.0942 -0.8183,1.2218 -1.6209,2.1302 -2.0755,3.5623 -0.5245,1.652 -0.9851,3.4826 -0.9851,5.2971 0,0.6244 1.7387,1.4986 2.2551,1.772 -0.2205,2.6504 -1.3801,0.9659 -0.1804,5.0128 0.309,1.0417 0.2274,1.5721 0.9412,2.2804 0.6357,0.6307 0.9616,1.2628 1.6554,1.7274 -0.5789,2.4853 -1.9739,5.2371 -3.3549,6.9542 l -5.5901,4.7192 c -0.4947,0.2259 -3.6464,0.6361 -4.4162,0.7384 -0.8672,0.1155 -1.367,0.118 -2.0412,0.5362 -0.5655,0.3506 -0.9977,0.6712 -1.5434,1.034 -1.6744,1.1132 -2.0142,1.0449 -2.5252,2.6293 -0.4173,1.2941 -1.0023,2.5314 -1.3086,3.846 -3.6445,0 -6.6546,-2.3664 -8.8855,-4.162 -0.895,-0.7201 -2.2197,-0.3541 -3.8165,-0.5329 -1.7051,-0.1908 -3.7345,-0.2985 -5.6614,-0.2985 -1.988,-2.9689 -3.129,-4.7688 -6.0277,-6.8589 -1.5854,-1.1434 -6.8711,-4.0947 -8.7919,-4.0947 -3.2092,0 -2.7969,1.2576 -4.9942,-0.3217 -0.89,-0.6398 -0.9556,-0.7266 -2.0912,-0.6564 -7.0294,0.4348 -10.4397,-0.5844 -17.2056,-2.276 -6.0944,-1.5237 -10.9919,-1.9006 -17.4292,-1.9006 -2.1383,0 -5.177,0.2368 -6.9266,0.6444 l -0.9062,-1.8025 c 0.8072,-1.4773 2.0477,-2.8228 2.8392,-4.3186 -0.3737,-0.2504 -0.7304,-0.5396 -1.1277,-0.8055 2.1292,-3.1794 5.0458,-2.1758 8.4772,-12.4635 2.1143,-6.3387 -0.4003,-3.0349 2.5274,-7.9431 0.358,-0.6003 0.5977,-1.0135 0.9809,-1.5962 1.2447,-1.8931 1.3253,-1.5839 0.9153,-3.6233 -0.1545,-0.768 -0.3363,-1.522 -0.3363,-2.4023 l 0.9665,-0.161 c 0.5709,-2.4506 0.8599,-5.0233 1.4799,-7.5407 0.1443,-0.5852 0.3562,-1.144 0.449,-1.8061 l 0.8393,-5.9263 c 0.1493,-1.201 0.3438,-2.8142 0.4412,-4.0689 0.3605,-4.6425 -0.5181,-3.6446 1.5707,-7.4501 0.9336,-1.7008 0.3746,-1.7252 0.3746,-3.8136 0,-0.3002 1.9269,-1.1136 2.2599,-1.2839 0.8223,-0.4204 1.323,-1.0876 1.9683,-1.7364 0.7091,-0.7125 1.1831,-1.0068 2.1079,-1.4361 3.2897,-1.5266 3.7248,-1.0203 8.3223,-1.0203 0.4631,0 1.2372,1.2688 1.5416,1.68 0.7139,0.9634 0.5993,1.1674 2.1632,1.2195 3.2892,0.1098 8.5233,0.8809 12.0869,1.1219 1.0415,0.0704 5.5005,0.4165 6.0979,0.6676 0.9507,0.3998 1.8538,1.531 2.6466,2.1857 1.2924,1.0671 0.7896,2.3829 1.6766,3.3173 1.8858,1.9868 1.0741,-0.2217 2.818,3.7862 0.2732,0.6281 0.1732,0.5542 0.7588,0.852 l 3.5016,1.6531 c 0.7142,0.3309 1.5943,0.9083 2.308,1.0746 0,2.4385 0.1537,2.1792 2.0951,3.5427 1.1147,0.7829 2.1485,1.5186 3.2887,2.3495 l 3.4421,2.1976 c 0.8792,0.5521 0.8731,0.4159 2.0559,0.2169 0.9277,-0.1558 1.679,-0.2253 2.4882,-0.4136 0,-1.1406 -0.2156,-2.0654 -0.3512,-3.1929 -0.111,-0.9223 -0.3766,-2.1558 -0.4544,-3.0893 0.4036,0.094 1.2652,0.4832 1.4498,0.4832 0.398,0 3.0735,-1.0873 3.3876,-1.2838 0.4285,-0.2687 1.7671,-2.5064 1.7671,-3.0654 0,-3.359 -0.6763,-6.3671 -1.1959,-9.5967 -0.286,-1.7766 -0.8269,-2.1217 -1.8415,-3.4742 -0.6366,-0.8486 -1.499,-2.6196 -2.6006,-2.8763 0.2474,-0.9263 1.9983,-2.0797 2.7015,-2.7754 0.4961,-0.4913 0.8239,-0.9049 1.3936,-1.3448 0.6796,-0.5247 0.9105,-0.8734 1.5037,-1.3957 0.5116,-0.4503 1.1785,-0.6832 1.3111,-1.4274 0.5418,-3.0426 -0.4003,-1.1385 2.0683,-3.5696 1.1755,-1.1575 4.2664,-2.0694 5.8417,-2.6955 l 5.8452,-2.5312 c 3.0352,-1.2952 2.7926,-1.6573 6.88,-1.6573 2.8902,0 6.9375,0.2118 9.1817,1.2886 0.2263,-0.4273 0.4182,-0.7001 0.6444,-1.1275 1.6377,0 4.3133,0.007 5.9198,-0.2014 1.6248,-0.2103 3.4322,-0.664 5.1717,-0.9494 2.7235,-0.4469 6.596,-1.4564 9.43,-0.5242 0.8295,0.2729 0.3326,0.3522 1.0635,0.5474 -0.0472,0.5675 -0.3784,1.8531 -0.7146,2.1849 l -9.4029,5.8998 c -1.8307,1.1444 -3.5487,2.5873 -5.0646,4.1171 l -1.614,1.4467 c -1.9544,1.8813 -7.6128,7.4097 -9.1771,9.1861 -0.3025,0.3436 -0.3223,0.4589 -0.6436,0.8063 l -4.7652,6.0275 c -2.4297,3.982 -0.4271,3.763 -3.2969,5.8845 -0.3261,0.2411 -0.5114,0.3625 -0.8175,0.6323 -0.5466,0.4821 -0.352,0.1952 -0.6136,0.9973 -0.9971,3.0553 -2.1088,6.0891 -3.1736,9.0687 -0.5284,1.4781 -1.2022,2.9371 -1.7673,4.3536 -0.438,1.0976 -1.797,3.1904 -1.797,4.3243 z m 114.3686,-61.3725 c -0.1539,0 -1.3352,-0.5281 -1.6288,-0.6263 -0.6533,-0.219 -1.1524,-0.3622 -1.881,-0.5352 -3.1743,-0.7536 -7.6595,-0.5085 -10.918,-0.0574 -1.4777,0.2045 -2.928,0.3786 -4.2872,0.5452 -3.9619,0.4856 -10.891,1.5325 -14.9917,0.231 -0.7635,-0.2424 -2.0875,-1.3489 -3.0201,-1.9735 0.1503,-0.6453 0.5879,-1.9012 1.1853,-2.1973 l 15.1482,-5.1481 c 2.7692,-0.5715 13.1419,0.0967 15.8829,0.0967 5.9289,0 4.0414,0.4126 8.5933,-0.9106 l 11.0587,-2.7943 c 0.9062,0 3.3909,0.777 4.4501,1.0269 1.1866,0.2796 0.9806,0.3141 1.5791,1.1592 0.3756,0.53 0.8912,1.0532 1.0586,1.6799 -2.7591,1.8476 -1.145,1.0556 -4.94,2.9532 -1.9309,0.9655 -15.2723,6.5506 -17.2894,6.5506 z m -169.6199,-56.862"
         style="fill:#99cc66;fill-rule:evenodd"
         id="path3" />
      <path
         d="m 248.4453,431.7796 c -0.1208,1.4511 -1.9166,3.773 -2.9358,4.7962 -0.5287,0.5308 -0.8721,0.8417 -1.8966,0.8417 -1.4193,-2.6824 2.314,-5.0513 4.8324,-5.6379 z m 5.4767,-3.705 -5.4767,3.705 z m 0,0 c -0.816,0.0679 -1.1168,0.4153 -1.933,0.4833 0.2517,-1.0803 0.7637,-2.2924 1.1749,-3.3354 l 0.8957,-2.4872 c 0.0725,-0.2135 0.0407,-0.1552 0.1255,-0.3577 l 0.2202,-0.4241 c 0,1.6796 -0.4833,3.7281 -0.4833,6.1211 z m -14.8195,10.7926 c -0.9625,0.2243 -2.5237,0.895 -3.3827,0.9665 0.2178,-2.6175 0.6443,-5.4291 0.6443,-8.2152 0,-1.5426 -2.2579,-1.7855 -3.1719,-0.2724 l -3.1103,6.0714 c 0.0563,-2.531 1.5354,-7.8931 -0.8053,-7.8931 -2.1543,0 -3.46,4.2059 -4.3264,6.3052 l -1.1505,2.5544 c 0,-4.8456 1.3799,-9.1176 -1.1292,-8.5509 -1.5243,0.3444 -5.0244,1.7399 -6.6028,2.1075 -0.0254,1.148 -0.6187,2.0738 -0.6443,3.2218 l 5.1547,-1.6109 -0.8055,13.5309 c 1.0201,-0.4895 2.3938,-0.5559 3.0952,-1.4151 0.5742,-0.7028 2.2538,-5.353 2.75,-6.5927 l 0.9629,-2.4201 c 0.01,-0.0254 0.1611,-0.4056 0.1872,-0.4569 0.1946,-0.3821 0.0593,-0.1677 0.2534,-0.391 0,1.5542 -1.0624,7.3107 -0.3634,8.2607 0.4844,0.6584 1.2536,0.652 2.0192,0.1615 0.9495,-0.6086 3.1063,-5.8515 3.5909,-7.0415 0.1272,-0.3124 0.1002,-0.3181 0.2294,-0.5759 0.1349,-0.2693 0.1497,-0.2833 0.3229,-0.4825 0,3.1007 -1.4003,6.2822 0.8055,6.2822 0.7479,0 2.5635,-0.7207 3.2421,-0.946 1.2042,-0.3997 2.1554,-0.5684 2.7178,-1.6314 0.883,0.5913 0.7943,0.8054 2.2553,0.8054 1.6119,0 3.0024,-0.9294 3.9615,-1.6764 1.0019,-0.7804 1.9703,-1.9655 2.635,-3.0028 0.7173,-1.1194 1.4306,-2.3607 1.9639,-3.674 0.1246,-0.3065 0.2022,-0.5278 0.3787,-0.91 0.2805,-0.6073 0.1273,-0.4553 0.7732,-0.6765 0.7361,-0.2523 1.5082,-0.5287 2.2078,-0.6918 0,2.1853 -0.3223,3.936 -0.3223,6.1213 l 3.3741,-1.1534 c 0.629,-6.8742 -0.1624,-5.9055 2.4045,-6.7603 2.8696,-0.9554 5.4972,-1.2467 5.4972,-3.6843 -1.8601,0.4332 -6.3058,2.1767 -7.2487,2.2551 0,-3.2345 0.4832,-6.0417 0.4832,-8.3763 -0.5083,0.0424 -1.4153,0.3438 -1.9139,0.5022 -3.3392,1.0613 -2.5167,0.4264 -3.7929,3.617 -0.2341,0.5852 -2.5177,6.6477 -2.9073,6.9186 -0.9597,0.6674 -10.2325,2.3063 -10.2325,9.4197 z"
         style="fill:#99cc66;fill-rule:evenodd"
         id="path4" />
      <path
         d="m 334.9465,320.4715 c 0,-1.78 -0.1353,-1.8365 0.6908,-3.3363 0.2483,-0.4509 0.2488,-0.4975 0.5523,-0.8974 0.2673,-0.3525 0.4123,-0.4842 0.5289,-0.9208 0.4424,0.1031 0.6547,0.3221 0.9665,0.3221 0.6906,0 -0.0736,-0.4839 1.4498,0.3223 0.1455,-0.294 0.1242,-0.2015 0.1609,-0.6444 l 1.8809,0.0353 c 1.7252,0.0889 1.2522,-0.3219 2.6523,0.7472 1.2686,0.9688 2.2323,1.1645 2.2323,3.8888 0,3.0058 -0.5244,2.717 0.1897,5.1262 0.3411,1.1513 0.5509,0.8771 1.218,1.6815 0.2517,0.3033 0.8476,1.624 0.8476,2.0519 0,0.6067 -0.9565,2.4341 -1.5567,3.1148 l -0.1518,0.1703 c -0.0227,0.0242 -0.0552,0.0592 -0.0782,0.083 -0.023,0.0238 -0.0565,0.0576 -0.0801,0.081 -0.461,0.4568 -1.0053,0.9661 -1.6299,1.2694 -2.0527,0.9969 -1.2504,-0.09 -3.421,0.445 -0.4882,0.1203 -1.0805,0.5896 -2.0502,0.0995 -0.3942,-0.1992 -0.9136,-0.9724 -1.1788,-1.3985 -0.2999,-0.482 -0.4095,-1.1722 -0.8775,-1.8611 -1.0532,-1.5502 -0.3949,-0.9785 -1.2199,-2.8072 -1.328,-2.9438 -1.3057,-1.4547 -1.5003,-3.8266 -0.0942,-1.1486 0.2239,-0.7904 0.5641,-1.789 0.5519,-1.62 -0.1897,-1.2934 -0.1897,-1.957 z m -5.799,-6.6043 c 0,0.4351 0.0771,0.4443 0.1612,0.8054 -0.633,0.0142 -0.3779,-0.044 -0.8054,0.1611 0.0603,0.2593 0.3221,0.8014 0.3221,0.8054 0,2.0462 -1.9103,1.3251 -0.7445,4.7717 0.1654,0.4886 0.2032,0.5017 0.2502,1.0383 l 0.5036,2.8793 c 0.3002,1.0376 0.6351,0.6937 0.6351,2.9086 0.1779,0.1191 0.6539,0.3872 0.7871,0.5017 l 0.1613,0.1608 c 0.007,0.008 2.387,3.8543 3.6986,5.4829 0.6944,0.8623 1.8158,1.8447 2.6419,2.6741 0.5591,0.561 0.7343,0.9052 1.5441,1.1942 3.8207,1.3634 2.5279,-0.0266 5.4063,-0.6067 0.9571,-0.1929 1.0941,0.1326 1.9293,-0.3259 1.2555,-0.6895 1.886,-0.8273 2.3223,-1.2215 1.6179,-1.4615 1.21,-0.6752 2.1575,-1.3864 0.8982,-0.6742 1.5583,-1.5711 2.3928,-2.2785 1.0241,-0.8681 0.593,-2.5275 0.3828,-3.4559 -0.4471,-1.976 0.1326,-1.4587 -1.1634,-3.5085 -0.6164,-0.9753 -1.1862,-1.9351 -1.8032,-2.8681 l -1.3153,-2.0845 c -0.5616,-0.972 0.3174,-1.761 -0.9741,-3.0359 l -1.6014,-1.472 c -0.5277,-0.5977 -0.1016,-0.4549 -0.252,-0.9098 -0.0259,-0.0783 -0.5558,-0.7693 -0.6599,-0.9035 -1.0281,-1.3261 -3.3715,-0.3936 -4.8418,-0.4083 -1.6603,-0.0163 -0.7467,0.5978 -2.3395,0.3562 -1.0927,-0.1655 -1.6322,-0.2199 -2.612,-0.464 -1.8761,-0.4677 -3.791,-1.5487 -5.2636,0.0158 -0.133,0.1413 -0.9201,1.1126 -0.9201,1.174 z"
         style="fill:#99cc66;fill-rule:evenodd"
         id="path5" />
      <path
         d="m 353.471,469.3118 c 1.3516,-0.6486 9.7207,-3.2218 10.4703,-3.2218 4.5038,0 3.5723,9.4873 0.488,10.9629 -2.8595,1.3681 -3.9455,-3.353 -3.0716,-6.7811 0.215,-0.8432 0.639,-1.6679 0.8118,-2.4097 -1.2114,0.2821 -3.0692,1.1955 -4.1881,1.2886 -0.1235,1.4838 -1.9632,4.856 0.3904,8.469 2.4398,3.7451 7.6485,1.7068 10.0156,-1.4458 4.1632,-5.5446 2.7985,-13.4666 -2.5131,-13.4666 -1.5483,0 -2.654,0.4734 -3.866,0.8055 -2.236,0.6127 -4.795,1.6511 -7.1701,2.3337 -0.9676,0.278 -0.6811,0.3446 -0.9492,1.4669 -0.1619,0.6771 -0.4024,1.3021 -0.418,1.9984 z"
         style="fill:#99cc66;fill-rule:evenodd"
         id="path6" />
      <path
         d="m 274.5407,422.7589 c -0.0251,-0.0287 -0.0611,-0.1147 -0.0706,-0.0904 -0.01,0.0244 -0.0561,-0.0723 -0.0692,-0.0919 -1.1393,-1.7248 -3.0508,-8.1939 -4.5317,-8.1939 -2.5846,0 -2.3333,1.8465 -2.4111,4.6765 -0.0213,0.7721 -0.1296,0.7344 -0.1669,1.4438 -0.0306,0.5818 0.0421,1.1705 -0.0228,1.7492 -0.0968,0.8655 -0.0868,2.2011 -0.2306,3.152 -0.3677,2.4315 0.5188,4.139 -2.1845,4.42 -1.8276,0.1901 -3.1993,-0.0107 -3.1993,3.5661 1.163,-0.2709 2.4442,-0.792 3.6445,-1.1879 1.4783,-0.4876 2.2648,-0.8217 2.9585,-2.0352 0.6274,-1.0977 0.64,-2.6409 0.6404,-4.3532 2e-4,-0.9975 0.1727,-1.2475 0.1718,-2.2442 -0.001,-1.0729 0.0869,-1.5957 0.1558,-2.4216 0.0251,0.0287 0.0611,0.038 0.0708,0.0902 l 0.5064,0.9433 c 0.2103,0.5192 0.2614,0.6457 0.4973,1.1135 l 2.0537,4.5507 c 0.5091,1.2504 0.7842,1.6785 2.0264,1.6785 1.0956,0 1.554,-0.9464 1.713,-1.9918 0.2795,-1.8369 0.16,-4.5757 0.4981,-7.0729 0.1393,-1.0291 0.2051,-2.6311 0.2051,-3.6607 0.524,0.0435 1.6921,0.546 2.9476,-0.5963 1.6714,-1.5209 1.0274,-4.7195 -1.4979,-4.7195 -3.0846,0 -3.2839,3.7484 -3.3829,5.7986 -0.0742,1.5356 -0.3219,3.561 -0.3219,5.4771 z"
         style="fill:#99cc66;fill-rule:evenodd"
         id="path7" />
      <path
         d="m 370.7068,463.6738 c 0.3411,-0.1636 0.7787,-0.235 1.2296,-0.3811 l 3.8643,-1.2905 c 0.918,-0.3061 1.6193,-0.5475 2.5357,-0.8468 1.7273,-0.5641 1.9128,-0.7032 3.4851,-0.7032 2.7935,0 3.0053,5.6139 0.6018,8.978 -0.7761,1.0861 -2.2351,2.6097 -3.6622,2.9421 0,-2.1534 0.6442,-7.9202 0.6442,-10.1482 l -3.5437,1.1276 c 0,4.0659 -0.6444,7.9414 -0.6444,12.0812 0.7882,-0.0657 4.1306,-1.282 4.8328,-1.6105 1.4053,-0.6575 2.6183,-1.6549 3.7996,-2.6436 0.7938,-0.6642 2.2446,-2.671 2.7547,-3.6885 2.1392,-4.2672 1.8824,-10.4208 -3.1719,-10.4208 -2.2815,0 -2.2309,0.1805 -4.651,0.987 -1.0803,0.36 -2.3318,0.7188 -3.4248,1.0854 -3.8503,1.2917 -3.767,0.7409 -4.2002,2.5652 -0.1264,0.5316 -0.3986,1.3548 -0.4496,1.9667 z"
         style="fill:#99cc66;fill-rule:evenodd"
         id="path8" />
      <path
         d="m 292.9041,416.6378 c -0.4376,-0.5034 -0.5586,-1.0519 -0.8082,-1.608 l -2.3557,-5.2153 c -1.3402,-2.6805 -3.535,-1.3972 -3.7456,0.7194 -0.237,2.3839 -0.4665,10.847 -0.7501,11.9752 -0.4028,1.6012 -2.0476,1.1533 -3.5024,1.4912 -1.4192,0.3293 -1.7247,2.1261 -1.7247,3.4301 0.5605,-0.269 1.136,-0.3822 1.8301,-0.5864 6.259,-1.8409 4.9618,-2.841 5.5358,-7.0285 l 0.2051,-4.9495 3.2187,6.9294 c 0.4544,1.0369 0.6479,1.769 1.9359,1.769 1.2956,0 1.7079,-1.1457 1.7743,-2.4139 l 0.574,-7.8024 c 0.1082,-0.7191 -0.01,-1.3835 0.074,-2.0348 0.1395,-1.0846 0.4302,-0.3133 1.1216,-0.3133 3.1494,0 4.3764,-5.4769 0,-5.4769 -1.8318,0 -2.75,2.4726 -2.9047,4.3443 -0.0755,0.9167 -0.1588,2.4324 -0.273,3.2707 z"
         style="fill:#99cc66;fill-rule:evenodd"
         id="path9" />
      <path
         d="m 392.4529,456.5862 c 0,2.8525 0.7835,2.2273 1.1277,3.7051 -0.5658,0.151 -0.2907,0.0839 -0.6918,0.4358 -0.7964,0.6986 -0.9693,0.7639 -1.7288,1.8149 -1.7966,2.4857 -2.207,6.7698 2.2594,6.7698 1.5282,0 5.0188,-1.39 6.5022,-1.8742 1.963,-0.6411 5.0427,-1.0588 5.0958,-3.4415 -3.3085,0.0736 -10.9536,5.4571 -10.9536,0.4832 0,-3.0033 3.0607,-4.0223 3.0607,-5.4768 0,-1.1284 -1.2888,-1.9768 -1.2888,-3.2216 0,-1.3128 0.7315,-1.8331 1.933,-1.933 0,1.8203 1.4881,2.7383 2.4162,2.7383 3.8995,0 3.7056,-6.7316 -0.6236,-5.297 -1.9928,0.6603 -7.1084,2.0009 -7.1084,5.297 z"
         style="fill:#99cc66;fill-rule:evenodd"
         id="path10" />
    </g>
  </g>
</svg>
