<?xml version="1.0" encoding="UTF-8"?>
<svg version="1.1" xmlns="http://www.w3.org/2000/svg" width="336" height="498">
<path d="M0 0 C1.92375583 -0.00379283 3.84750892 -0.00930074 5.77125549 -0.01637268 C10.94668704 -0.03021517 16.12178198 -0.01923872 21.29719448 -0.00266147 C26.73810969 0.0112926 32.17900739 0.00471755 37.61993408 0.00120544 C46.74846763 -0.00148763 55.87686901 0.01190408 65.00537109 0.03515625 C75.53467038 0.06179214 86.06374928 0.06349952 96.59307075 0.05176789 C106.76030001 0.04096384 116.92745016 0.04719573 127.09467316 0.06132317 C131.40537656 0.06705697 135.71602157 0.06702098 140.02672577 0.06225777 C145.10603098 0.05746145 150.18509686 0.06769896 155.26435661 0.08921242 C157.12021261 0.09474326 158.97609178 0.09527994 160.83194923 0.09025955 C185.12882531 0.03280739 204.7278936 7.23275459 222.29003906 24.50170898 C223.33998047 25.53231445 223.33998047 25.53231445 224.41113281 26.58374023 C239.76726318 42.71815401 246.3972641 64.62780142 246.29003906 86.50170898 C245.40222034 106.30332032 237.56030679 125.74495506 224.29003906 140.50170898 C223.63003906 140.50170898 222.97003906 140.50170898 222.29003906 140.50170898 C221.96003906 141.49170898 221.63003906 142.48170898 221.29003906 143.50170898 C220.63003906 143.50170898 219.97003906 143.50170898 219.29003906 143.50170898 C219.29003906 144.16170898 219.29003906 144.82170898 219.29003906 145.50170898 C207.07682183 156.1589666 193.59190841 161.7545944 178.29003906 166.50170898 C179.19882812 166.76983398 180.10761719 167.03795898 181.04394531 167.31420898 C195.0036224 171.66676471 207.33979364 177.63445487 218.29003906 187.50170898 C219.22203125 188.32928711 219.22203125 188.32928711 220.17285156 189.17358398 C233.24587467 201.48450261 240.4690458 217.26615335 244.29003906 234.50170898 C244.48210937 235.27772461 244.67417969 236.05374023 244.87207031 236.85327148 C246.94583032 249.99354515 245.35588423 262.95757683 241.29003906 275.50170898 C240.9278125 276.6425293 240.56558594 277.78334961 240.19238281 278.95874023 C233.09839267 299.23071885 217.15367563 315.74375003 198.16503906 325.37670898 C176.64809198 335.58135092 153.59143025 335.62640368 131.16503906 328.37670898 C116.08303832 322.63936474 103.24457455 312.09271798 93.29003906 299.50170898 C92.78988281 298.87393555 92.28972656 298.24616211 91.77441406 297.59936523 C88.15604866 292.63839583 85.87708061 287.34643007 83.60253906 281.68530273 C83.28220703 280.897323 82.961875 280.10934326 82.63183594 279.29748535 C81.84765014 277.36701304 81.06834946 275.43455756 80.29003906 273.50170898 C80.28645653 274.66513289 80.28645653 274.66513289 80.28280163 275.85206032 C80.22351455 294.77563139 80.14787746 313.69907357 80.05432415 332.6225071 C80.00947046 341.77396107 79.97003209 350.92537703 79.94360352 360.0769043 C79.92053863 368.05881809 79.88704677 376.04061053 79.8413375 384.02242792 C79.81751912 388.24380721 79.79871613 392.46506717 79.79242516 396.68651199 C79.78632228 400.67074098 79.76613808 404.65466509 79.73576355 408.63878059 C79.72706578 410.09063018 79.7232433 411.54251976 79.7250309 412.9943943 C79.74104388 432.02387291 75.281677 448.86162505 64.29003906 464.50170898 C63.72542969 465.31381836 63.16082031 466.12592773 62.57910156 466.96264648 C59.65818265 471.02343619 59.65818265 471.02343619 58.29003906 472.50170898 C57.63003906 472.50170898 56.97003906 472.50170898 56.29003906 472.50170898 C56.09152344 473.05084961 55.89300781 473.59999023 55.68847656 474.16577148 C53.71226148 477.46682349 50.91644618 479.55614885 47.91503906 481.87670898 C47.28799072 482.36276611 46.66094238 482.84882324 46.01489258 483.34960938 C36.61237919 490.45882682 26.62188097 494.43266847 15.29003906 497.50170898 C14.71213623 497.67677979 14.1342334 497.85185059 13.53881836 498.03222656 C-7.04969868 502.33053492 -31.14820989 498.91280068 -48.70996094 487.50170898 C-67.49674981 475.19862094 -81.39099492 457.49072495 -86.64746094 435.43920898 C-87.02860837 433.46506072 -87.38665311 431.48615016 -87.70996094 429.50170898 C-87.90332031 428.43436523 -87.90332031 428.43436523 -88.10058594 427.34545898 C-91.73680954 403.99707588 -84.07413221 382.30874274 -70.70996094 363.50170898 C-68.56152344 360.60327148 -68.56152344 360.60327148 -66.70996094 358.50170898 C-66.04996094 358.50170898 -65.38996094 358.50170898 -64.70996094 358.50170898 C-64.37996094 357.51170898 -64.04996094 356.52170898 -63.70996094 355.50170898 C-63.04996094 355.50170898 -62.38996094 355.50170898 -61.70996094 355.50170898 C-61.70996094 354.84170898 -61.70996094 354.18170898 -61.70996094 353.50170898 C-49.85788012 342.68219581 -35.17128513 336.17377348 -19.70996094 332.50170898 C-20.763125 332.23358398 -21.81628906 331.96545898 -22.90136719 331.68920898 C-45.06054473 325.78078481 -64.1761926 313.88653112 -76.35571289 293.83666992 C-89.0446506 271.84144916 -91.13875083 248.91526911 -84.93652344 224.45092773 C-79.07137512 204.56861303 -65.14088778 186.48778026 -46.8671875 176.49389648 C-37.86491778 171.86754037 -28.74189906 168.06697593 -18.70996094 166.50170898 C-19.58136719 166.2709668 -20.45277344 166.04022461 -21.35058594 165.80249023 C-36.45245088 161.66745579 -49.74590229 155.94583277 -61.70996094 145.50170898 C-61.70996094 144.84170898 -61.70996094 144.18170898 -61.70996094 143.50170898 C-62.69996094 143.17170898 -63.68996094 142.84170898 -64.70996094 142.50170898 C-64.70996094 141.84170898 -64.70996094 141.18170898 -64.70996094 140.50170898 C-65.36996094 140.50170898 -66.02996094 140.50170898 -66.70996094 140.50170898 C-81.68593046 124.09649755 -89.13530815 102.41721707 -88.92480469 80.38452148 C-87.58748294 56.21547027 -76.61895266 35.68082106 -59.48730469 18.89233398 C-54.64553157 14.72473181 -49.27317407 11.60440891 -43.70996094 8.50170898 C-43.03578125 8.09178711 -42.36160156 7.68186523 -41.66699219 7.25952148 C-28.97839485 0.03290313 -14.13835336 -0.08046776 0 0 Z M79.29003906 166.50170898 C79.29003906 187.62170898 79.29003906 208.74170898 79.29003906 230.50170898 C79.62003906 230.50170898 79.95003906 230.50170898 80.29003906 230.50170898 C80.49757812 229.72569336 80.70511719 228.94967773 80.91894531 228.15014648 C84.81775831 214.47983145 90.68387851 203.0771398 100.29003906 192.50170898 C100.83015625 191.8687793 101.37027344 191.23584961 101.92675781 190.58374023 C111.58603182 179.95123962 126.71722475 172.53421179 140.29003906 168.50170898 C140.29003906 168.17170898 140.29003906 167.84170898 140.29003906 167.50170898 C136.65527606 166.66578 133.30813126 166.37977198 129.58178711 166.38818359 C128.44543823 166.38830444 127.30908936 166.38842529 126.13830566 166.3885498 C124.95474487 166.39366577 123.77118408 166.39878174 122.55175781 166.40405273 C121.45593384 166.40505981 120.36010986 166.40606689 119.2310791 166.40710449 C115.14655508 166.41232749 111.06204599 166.42628876 106.97753906 166.43920898 C97.84066406 166.45983398 88.70378906 166.48045898 79.29003906 166.50170898 Z " fill="#884FFE" transform="translate(89.7099609375,-0.501708984375)"/>
<path d="M0 0 C1.92375583 -0.00379283 3.84750892 -0.00930074 5.77125549 -0.01637268 C10.94668704 -0.03021517 16.12178198 -0.01923872 21.29719448 -0.00266147 C26.73810969 0.0112926 32.17900739 0.00471755 37.61993408 0.00120544 C46.74846763 -0.00148763 55.87686901 0.01190408 65.00537109 0.03515625 C75.53467038 0.06179214 86.06374928 0.06349952 96.59307075 0.05176789 C106.76030001 0.04096384 116.92745016 0.04719573 127.09467316 0.06132317 C131.40537656 0.06705697 135.71602157 0.06702098 140.02672577 0.06225777 C145.10603098 0.05746145 150.18509686 0.06769896 155.26435661 0.08921242 C157.12021261 0.09474326 158.97609178 0.09527994 160.83194923 0.09025955 C185.12882531 0.03280739 204.7278936 7.23275459 222.29003906 24.50170898 C223.33998047 25.53231445 223.33998047 25.53231445 224.41113281 26.58374023 C239.76726318 42.71815401 246.3972641 64.62780142 246.29003906 86.50170898 C245.40222034 106.30332032 237.56030679 125.74495506 224.29003906 140.50170898 C223.63003906 140.50170898 222.97003906 140.50170898 222.29003906 140.50170898 C221.96003906 141.49170898 221.63003906 142.48170898 221.29003906 143.50170898 C220.63003906 143.50170898 219.97003906 143.50170898 219.29003906 143.50170898 C219.29003906 144.16170898 219.29003906 144.82170898 219.29003906 145.50170898 C207.07682183 156.1589666 193.59190841 161.7545944 178.29003906 166.50170898 C179.28003906 167.16170898 180.27003906 167.82170898 181.29003906 168.50170898 C180.39103882 168.39669067 180.39103882 168.39669067 179.47387695 168.28955078 C173.20855857 167.60404482 167.02807938 167.31883833 160.72753906 167.31420898 C159.84646484 167.30196289 158.96539062 167.2897168 158.05761719 167.27709961 C152.87293864 167.26562062 148.28083429 167.76163476 143.2824707 169.16845703 C140.20885588 169.68254651 138.03066882 168.87202386 135.29003906 167.50170898 C133.29329954 167.41409177 131.29353366 167.39301317 129.29489136 167.40164185 C128.01633774 167.40460266 126.73778412 167.40756348 125.42048645 167.41061401 C123.99533041 167.41893856 122.57017478 167.42733327 121.14501953 167.43579102 C119.65033624 167.44098223 118.1556512 167.44569076 116.66096497 167.44995117 C113.43666894 167.45990738 110.2124017 167.47276313 106.98812485 167.48767471 C101.88622901 167.51071072 96.78433715 167.52403448 91.68240356 167.53536987 C77.1723329 167.56882337 62.66231939 167.6103276 48.15234375 167.6730957 C40.1427199 167.70766263 32.13313901 167.73144446 24.12344849 167.74330413 C19.88545678 167.75006608 15.64764695 167.76248582 11.40972519 167.78833389 C7.41901664 167.812671 3.42851501 167.82297801 -0.5622654 167.82273865 C-2.02312715 167.82515167 -3.4839913 167.83268933 -4.94479561 167.84586716 C-12.582583 167.91186363 -18.75356745 167.77698251 -25.70996094 164.50170898 C-27.80938202 163.88125282 -29.91341013 163.2760986 -32.02246094 162.68920898 C-41.46772957 159.80649116 -49.20991382 155.24071803 -56.83496094 149.01733398 C-58.84295848 147.34683774 -58.84295848 147.34683774 -61.70996094 145.50170898 C-61.70996094 144.84170898 -61.70996094 144.18170898 -61.70996094 143.50170898 C-62.69996094 143.17170898 -63.68996094 142.84170898 -64.70996094 142.50170898 C-64.70996094 141.84170898 -64.70996094 141.18170898 -64.70996094 140.50170898 C-65.36996094 140.50170898 -66.02996094 140.50170898 -66.70996094 140.50170898 C-81.68593046 124.09649755 -89.13530815 102.41721707 -88.92480469 80.38452148 C-87.58748294 56.21547027 -76.61895266 35.68082106 -59.48730469 18.89233398 C-54.64553157 14.72473181 -49.27317407 11.60440891 -43.70996094 8.50170898 C-43.03578125 8.09178711 -42.36160156 7.68186523 -41.66699219 7.25952148 C-28.97839485 0.03290313 -14.13835336 -0.08046776 0 0 Z " fill="#FD7137" transform="translate(89.7099609375,-0.501708984375)"/>
<path d="M0 0 C1.92968278 0.00589806 3.85937201 0.00996832 5.7890625 0.01220703 C12.85947406 0.03298254 19.92974766 0.0888266 27 0.140625 C42.84 0.223125 58.68 0.305625 75 0.390625 C75 54.840625 75 109.290625 75 165.390625 C53.3746875 165.4525 53.3746875 165.4525 31.3125 165.515625 C26.78442627 165.53383301 22.25635254 165.55204102 17.59106445 165.57080078 C12.00036621 165.57983398 12.00036621 165.57983398 9.3712616 165.58151245 C7.56098951 165.58455484 5.7507211 165.59152816 3.94047546 165.60177612 C-6.60633787 165.65842335 -16.61804602 165.42143842 -27 163.390625 C-28.3873633 163.17285232 -29.77531477 162.95876211 -31.1640625 162.75 C-42.76179759 160.70796087 -51.06212314 156.30315685 -60.125 148.90625 C-62.13299754 147.23575376 -62.13299754 147.23575376 -65 145.390625 C-65 144.730625 -65 144.070625 -65 143.390625 C-65.99 143.060625 -66.98 142.730625 -68 142.390625 C-68 141.730625 -68 141.070625 -68 140.390625 C-68.66 140.390625 -69.32 140.390625 -70 140.390625 C-84.97596953 123.98541357 -92.42534721 102.30613309 -92.21484375 80.2734375 C-90.877522 56.10438628 -79.90899173 35.56973708 -62.77734375 18.78125 C-57.93557064 14.61364783 -52.56321313 11.49332493 -47 8.390625 C-46.32582031 7.98070312 -45.65164062 7.57078125 -44.95703125 7.1484375 C-31.23652671 -0.66588959 -15.22992112 -0.1572813 0 0 Z " fill="#FE3737" transform="translate(93,-0.390625)"/>
<path d="M0 0 C2.01737323 0.00374021 4.03474831 0.0065824 6.05212402 0.00857544 C11.30614429 0.01613263 16.56005014 0.03571101 21.81402588 0.0579834 C27.1976161 0.07861449 32.58122521 0.08761369 37.96484375 0.09765625 C48.48702884 0.11896609 59.00912982 0.15300375 69.53125 0.1953125 C69.60105673 12.20956271 69.65421614 24.22376389 69.68668652 36.23817635 C69.70227822 41.81820006 69.72339665 47.39808403 69.75756836 52.97802734 C69.79039493 58.37267283 69.80815174 63.76718472 69.81588173 69.16192245 C69.8213837 71.21019465 69.83212651 73.25846034 69.84844017 75.30667496 C70.00963121 96.40199141 66.95616934 114.51580172 54.53125 132.1953125 C53.96664062 133.00742187 53.40203125 133.81953125 52.8203125 134.65625 C49.89939359 138.71703971 49.89939359 138.71703971 48.53125 140.1953125 C47.87125 140.1953125 47.21125 140.1953125 46.53125 140.1953125 C46.33273438 140.74445313 46.13421875 141.29359375 45.9296875 141.859375 C43.95347242 145.16042701 41.15765712 147.24975237 38.15625 149.5703125 C37.52920166 150.05636963 36.90215332 150.54242676 36.25610352 151.04321289 C26.85359013 158.15243033 16.86309191 162.12627198 5.53125 165.1953125 C4.95334717 165.3703833 4.37544434 165.5454541 3.7800293 165.72583008 C-16.80848774 170.02413843 -40.90699895 166.60640419 -58.46875 155.1953125 C-77.25553887 142.89222446 -91.14978399 125.18432846 -96.40625 103.1328125 C-96.78739744 101.15866424 -97.14544217 99.17975367 -97.46875 97.1953125 C-97.59765625 96.48375 -97.7265625 95.7721875 -97.859375 95.0390625 C-101.4955986 71.69067939 -93.83292127 50.00234625 -80.46875 31.1953125 C-78.3203125 28.296875 -78.3203125 28.296875 -76.46875 26.1953125 C-75.80875 26.1953125 -75.14875 26.1953125 -74.46875 26.1953125 C-74.13875 25.2053125 -73.80875 24.2153125 -73.46875 23.1953125 C-72.80875 23.1953125 -72.14875 23.1953125 -71.46875 23.1953125 C-71.46875 22.5353125 -71.46875 21.8753125 -71.46875 21.1953125 C-50.8526247 2.37528902 -26.70753326 -0.14747863 0 0 Z " fill="#24CA71" transform="translate(99.46875,331.8046875)"/>
<path d="M0 0 C0.89074219 0.43183594 1.78148437 0.86367187 2.69921875 1.30859375 C21.50209179 10.98538615 36.8951283 27.79614092 43.67285156 48.00634766 C44.9656066 52.29538518 46.03036911 56.62623486 47 61 C47.28810547 62.16402344 47.28810547 62.16402344 47.58203125 63.3515625 C49.65579125 76.49183617 48.06584517 89.45586785 44 102 C43.63777344 103.14082031 43.27554688 104.28164063 42.90234375 105.45703125 C35.80835361 125.72900987 19.86363657 142.24204105 0.875 151.875 C-20.64194708 162.07964194 -43.69860881 162.12469469 -66.125 154.875 C-81.20700075 149.13765575 -94.04546451 138.591009 -104 126 C-104.50015625 125.37222656 -105.0003125 124.74445313 -105.515625 124.09765625 C-109.01641372 119.29789066 -111.43422009 114.12897972 -113.75 108.6875 C-114.04390625 108.01275635 -114.3378125 107.3380127 -114.640625 106.64282227 C-118.85905532 96.30058844 -119.34391934 85.5470402 -119.3125 74.5 C-119.32861328 73.36691406 -119.34472656 72.23382813 -119.36132812 71.06640625 C-119.37368261 49.49547152 -109.7424735 31.1095894 -95.25 15.6875 C-89.44248868 10.13566528 -82.89693562 6.04663044 -76 2 C-75.19175781 1.4946875 -74.38351563 0.989375 -73.55078125 0.46875 C-52.92507516 -11.33793691 -20.91809225 -10.23356088 0 0 Z " fill="#01B6FE" transform="translate(287,173)"/>
<path d="M0 0 C2.01737323 0.00374021 4.03474831 0.0065824 6.05212402 0.00857544 C11.30614429 0.01613263 16.56005014 0.03571101 21.81402588 0.0579834 C27.1976161 0.07861449 32.58122521 0.08761369 37.96484375 0.09765625 C48.48702884 0.11896609 59.00912982 0.15300375 69.53125 0.1953125 C69.55441621 12.36503286 69.57218696 24.53474798 69.58306217 36.70448589 C69.58828161 42.35532599 69.59536228 48.00615101 69.60668945 53.65698242 C69.61755161 59.109929 69.62353392 64.56286108 69.62612724 70.01581764 C69.62797548 72.09662924 69.63158456 74.17744004 69.63698006 76.25824547 C69.6442346 79.17177423 69.64523907 82.08524296 69.64477539 84.9987793 C69.64837067 85.85977234 69.65196594 86.72076538 69.65567017 87.60784912 C69.64878155 91.60574292 69.53023292 95.29342495 68.53125 99.1953125 C68.20125 99.1953125 67.87125 99.1953125 67.53125 99.1953125 C68.02625 50.6853125 68.02625 50.6853125 68.53125 1.1953125 C66.22125 1.5253125 63.91125 1.8553125 61.53125 2.1953125 C59.07449317 2.29989031 56.61559821 2.36030151 54.15673828 2.38476562 C53.10353394 2.39720558 53.10353394 2.39720558 52.02905273 2.40989685 C50.51285077 2.42719905 48.99662353 2.44239196 47.48038101 2.45567322 C45.05333446 2.47698601 42.62640633 2.50399784 40.19943237 2.53234863 C35.01842018 2.59179136 29.83734602 2.64379112 24.65625 2.6953125 C17.88796515 2.76353216 11.11973446 2.83539539 4.3515625 2.9140625 C3.53377571 2.92344849 2.71598892 2.93283447 1.87342072 2.94250488 C-11.92013457 3.10639906 -25.69022638 3.50506762 -39.46875 4.1953125 C-39.79875 5.1853125 -40.12875 6.1753125 -40.46875 7.1953125 C-43.05078125 8.4765625 -43.05078125 8.4765625 -46.28125 9.6953125 C-50.13518598 11.15990206 -53.2900558 12.54768343 -56.46875 15.1953125 C-57.78875 14.5353125 -59.10875 13.8753125 -60.46875 13.1953125 C-40.78786896 0.96774941 -22.5826648 -0.12470116 0 0 Z " fill="#5BC49F" transform="translate(99.46875,331.8046875)"/>
<path d="M0 0 C-0.88751953 0.29003906 -0.88751953 0.29003906 -1.79296875 0.5859375 C-5.9146645 1.94414719 -9.9950524 3.32050585 -14 5 C-13.01 5.66 -12.02 6.32 -11 7 C-11.89900024 6.89498169 -11.89900024 6.89498169 -12.81616211 6.7878418 C-19.08148049 6.10233584 -25.26195969 5.81712935 -31.5625 5.8125 C-32.44357422 5.80025391 -33.32464844 5.78800781 -34.23242188 5.77539062 C-39.41710043 5.76391163 -44.00920477 6.25992578 -49.00756836 7.66674805 C-52.08118319 8.18083753 -54.25937025 7.37031488 -57 6 C-58.99673952 5.91238278 -60.99650541 5.89130418 -62.99514771 5.89993286 C-64.27370132 5.90289368 -65.55225494 5.90585449 -66.86955261 5.90890503 C-68.29470865 5.91722958 -69.71986428 5.92562428 -71.14501953 5.93408203 C-72.63970282 5.93927325 -74.13438786 5.94398178 -75.6290741 5.94824219 C-78.85337012 5.95819839 -82.07763736 5.97105414 -85.30191422 5.98596573 C-90.40381006 6.00900173 -95.50570191 6.02232549 -100.6076355 6.03366089 C-115.11770616 6.06711439 -129.62771968 6.10861862 -144.13769531 6.17138672 C-152.14731916 6.20595364 -160.15690005 6.22973547 -168.16659057 6.24159515 C-172.40458229 6.2483571 -176.64239211 6.26077684 -180.88031387 6.28662491 C-184.87102242 6.31096202 -188.86152406 6.32126903 -192.85230446 6.32102966 C-194.31316621 6.32344268 -195.77403036 6.33098035 -197.23483467 6.34415817 C-204.88233803 6.4102386 -211.03263789 6.26361355 -218 3 C-220.31865083 2.26521695 -222.65165931 1.63600894 -225 1 C-221.09453605 -0.41835264 -217.43777269 0.28093829 -213.4375 0.875 C-212.76525391 0.96652344 -212.09300781 1.05804688 -211.40039062 1.15234375 C-208.47732107 1.56453429 -205.80707799 2.06430734 -203 3 C-201.21237309 3.09264255 -199.42144969 3.12628811 -197.63142395 3.12698364 C-196.51553894 3.12980347 -195.39965393 3.13262329 -194.24995422 3.13552856 C-193.02382919 3.13350433 -191.79770416 3.1314801 -190.53442383 3.12939453 C-189.24249115 3.13114685 -187.95055847 3.13289917 -186.61947632 3.13470459 C-183.06128708 3.13927838 -179.50312676 3.13748519 -175.94493699 3.1343255 C-172.18266618 3.13178191 -168.42039774 3.13414681 -164.65812683 3.13571167 C-158.29999352 3.13753581 -151.94187178 3.13512929 -145.58374023 3.13037109 C-139.13581581 3.12559982 -132.68791457 3.12548896 -126.23999023 3.13037109 C-83.27853434 3.21804287 -83.27853434 3.21804287 -40.32421875 2.5546875 C-39.15418777 2.52556463 -39.15418777 2.52556463 -37.96051979 2.49585342 C-22.25253384 2.58366119 -22.25253384 2.58366119 -6.9375 -0.125 C-3.88804689 -1.03334774 -2.92064572 -0.89189611 0 0 Z " fill="#F5885E" transform="translate(282,161)"/>
<path d="M0 0 C3.10474234 0.30694459 6.20866586 0.621514 9.3125 0.9375 C10.63411133 1.06801758 10.63411133 1.06801758 11.98242188 1.20117188 C12.82998047 1.28818359 13.67753906 1.37519531 14.55078125 1.46484375 C15.33106689 1.543396 16.11135254 1.62194824 16.9152832 1.70288086 C19 2 19 2 22 3 C24.87459111 3.1204002 27.72672723 3.18540098 30.60229492 3.20532227 C31.91968407 3.22017166 31.91968407 3.22017166 33.26368713 3.23532104 C36.1692535 3.26693119 39.07483622 3.29169161 41.98046875 3.31640625 C43.99400764 3.33697619 46.00754222 3.35797268 48.02107239 3.37937927 C53.32287097 3.43459577 58.62470849 3.48400695 63.92657471 3.53222656 C69.33585072 3.58244463 74.74507013 3.63812911 80.15429688 3.69335938 C90.7694829 3.8009358 101.38471806 3.90238196 112 4 C112 4.33 112 4.66 112 5 C99.49116261 5.20046079 86.98220115 5.38415034 74.47280884 5.54658794 C68.66384329 5.62254252 62.85507678 5.70421481 57.04638672 5.79907227 C51.43794141 5.89044733 45.82947421 5.96664857 40.22067261 6.03244972 C38.08365217 6.06016482 35.94669471 6.0932947 33.80984497 6.13199425 C30.81071863 6.185374 27.81194348 6.21928248 24.8125 6.2487793 C23.93424057 6.26891586 23.05598114 6.28905243 22.15110779 6.30979919 C16.38818779 6.33968888 12.29897424 5.27110013 7 3 C4.67975576 2.27156841 2.34793556 1.63589921 0 1 C0 0.67 0 0.34 0 0 Z " fill="#D8427E" transform="translate(57,161)"/>
<path d="M0 0 C0.66 0.33 1.32 0.66 2 1 C0.40791583 12.54261023 -6.85788707 24.68184139 -15 33 C-15.66 33 -16.32 33 -17 33 C-17.23460937 33.58265625 -17.46921875 34.1653125 -17.7109375 34.765625 C-19.29152924 37.50531734 -21.09401497 38.86983969 -23.625 40.75 C-24.44226563 41.36359375 -25.25953125 41.9771875 -26.1015625 42.609375 C-27.04128906 43.29773438 -27.04128906 43.29773438 -28 44 C-28.495 42.515 -28.495 42.515 -29 41 C-28.34 41 -27.68 41 -27 41 C-26.67 40.01 -26.34 39.02 -26 38 C-24.515 37.505 -24.515 37.505 -23 37 C-22.26676204 34.98491642 -22.26676204 34.98491642 -22 33 C-20.68 33.33 -19.36 33.66 -18 34 C-18 32.35 -18 30.7 -18 29 C-17.01 29.33 -16.02 29.66 -15 30 C-15 29.34 -15 28.68 -15 28 C-14.34 28 -13.68 28 -13 28 C-13 26.35 -13 24.7 -13 23 C-12.01 23.33 -11.02 23.66 -10 24 C-10.33 22.68 -10.66 21.36 -11 20 C-10.01 20 -9.02 20 -8 20 C-8 19.34 -8 18.68 -8 18 C-7.34 18 -6.68 18 -6 18 C-6 16.02 -6 14.04 -6 12 C-5.34 12 -4.68 12 -4 12 C-3.67 11.01 -3.34 10.02 -3 9 C-2.34 9 -1.68 9 -1 9 C-0.67 6.03 -0.34 3.06 0 0 Z " fill="#6CD59F" transform="translate(163,439)"/>
<path d="M0 0 C2.70343211 2.70343211 3.15970399 5.71161401 4.0625 9.3125 C4.23587891 9.97701172 4.40925781 10.64152344 4.58789062 11.32617188 C5.0750649 13.21327222 5.53813334 15.10654662 6 17 C6.19980469 17.78890625 6.39960938 18.5778125 6.60546875 19.390625 C8.44967222 31.58793114 7.28677181 44.1832728 4 56 C3.67 56 3.34 56 3 56 C2.97302863 53.39576408 2.95317511 50.79180756 2.9375 48.1875 C2.92912109 47.44951172 2.92074219 46.71152344 2.91210938 45.95117188 C2.89740172 42.70077932 2.96468298 40.10595105 4 37 C4.62848211 27.04731608 4.47140192 18.23743003 0.875 8.796875 C-0.08497679 5.72837777 -0.15128893 3.19597855 0 0 Z " fill="#63CFF2" transform="translate(328,217)"/>
<path d="M0 0 C0.33 0 0.66 0 1 0 C1.01981934 1.0194873 1.03963867 2.03897461 1.06005859 3.08935547 C1.13602808 6.86532648 1.22475809 10.64090773 1.31738281 14.41650391 C1.35570852 16.0518424 1.39055507 17.68726624 1.421875 19.32275391 C1.46744842 21.6712091 1.52545367 24.01907495 1.5859375 26.3671875 C1.59748871 27.10057343 1.60903992 27.83395935 1.62094116 28.58956909 C1.61868097 32.74977105 1.61868097 32.74977105 4 36 C4.4140625 39.0390625 4.4140625 39.0390625 4.625 42.625 C4.69976563 43.81351562 4.77453125 45.00203125 4.8515625 46.2265625 C4.90054687 47.14179688 4.94953125 48.05703125 5 49 C2.32107971 46.32107971 1.84362625 43.37843412 0.9375 39.8125 C0.76412109 39.16474609 0.59074219 38.51699219 0.41210938 37.84960938 C-2.88196654 25.21600789 -2.90339964 12.70237344 0 0 Z " fill="#B498F3" transform="translate(3,231)"/>
<path d="M0 0 C-6.98647582 6.98647582 -22.53588247 7.08032072 -31.8125 7.3125 C-40.0883437 7.19161689 -50.97266898 6.68488734 -58 2 C-52.72 2.33 -47.44 2.66 -42 3 C-42 3.66 -42 4.32 -42 5 C-38.85378318 4.86177801 -35.70814434 4.71314916 -32.5625 4.5625 C-31.66466797 4.52318359 -30.76683594 4.48386719 -29.84179688 4.44335938 C-28.98779297 4.40146484 -28.13378906 4.35957031 -27.25390625 4.31640625 C-26.46314697 4.27974854 -25.6723877 4.24309082 -24.85766602 4.20532227 C-22.98598559 4.19436743 -22.98598559 4.19436743 -22 3 C-20.14712498 2.92773498 -18.29166122 2.9161878 -16.4375 2.9375 C-15.42558594 2.94652344 -14.41367187 2.95554687 -13.37109375 2.96484375 C-12.58863281 2.97644531 -11.80617188 2.98804688 -11 3 C-11 2.34 -11 1.68 -11 1 C-7.27569643 0.30710631 -3.78916254 -0.11144596 0 0 Z " fill="#67CDF0" transform="translate(283,326)"/>
<path d="M0 0 C-0.66 0.66 -1.32 1.32 -2 2 C-1.01 2.66 -0.02 3.32 1 4 C0.10099976 3.89498169 0.10099976 3.89498169 -0.81616211 3.7878418 C-7.08148049 3.10233584 -13.26195969 2.81712935 -19.5625 2.8125 C-20.44357422 2.80025391 -21.32464844 2.78800781 -22.23242188 2.77539062 C-27.41710043 2.76391163 -32.00920477 3.25992578 -37.00756836 4.66674805 C-40.08118319 5.18083753 -42.25937025 4.37031488 -45 3 C-45 2.34 -45 1.68 -45 1 C-39.87715432 0.85616861 -34.75427065 0.7138046 -29.63134766 0.57275391 C-27.89142782 0.52464701 -26.15151869 0.47615097 -24.41162109 0.42724609 C-21.89944179 0.35670352 -19.38722628 0.28759695 -16.875 0.21875 C-16.10696045 0.19687622 -15.3389209 0.17500244 -14.54760742 0.15246582 C-9.69642816 0.02124583 -4.85297784 -0.01925785 0 0 Z " fill="#D7C2B5" transform="translate(270,164)"/>
<path d="M0 0 C-2.43460383 3.65190574 -3.84518143 3.91974717 -8 5 C-9.32 5 -10.64 5 -12 5 C-12.433125 5.928125 -12.433125 5.928125 -12.875 6.875 C-14.61828785 10.16787704 -15.71585844 10.90886025 -19.3125 12.0625 C-22.20352934 12.79750746 -25.066571 13.46664927 -28 14 C-22.94611311 8.27226152 -7.80578645 -3.90289322 0 0 Z " fill="#3CC2F1" transform="translate(227,170)"/>
<path d="M0 0 C0.66 0 1.32 0 2 0 C1.67 1.32 1.34 2.64 1 4 C0.34 4 -0.32 4 -1 4 C-1.2475 4.721875 -1.495 5.44375 -1.75 6.1875 C-3.12269592 9.27606582 -4.72353296 11.51011418 -7 14 C-7.66 14 -8.32 14 -9 14 C-9.12375 14.639375 -9.2475 15.27875 -9.375 15.9375 C-9.58125 16.618125 -9.7875 17.29875 -10 18 C-10.66 18.33 -11.32 18.66 -12 19 C-12.91031272 21.34386809 -12.91031272 21.34386809 -13.625 24.0625 C-13.88539062 24.98160156 -14.14578125 25.90070313 -14.4140625 26.84765625 C-14.60742188 27.55792969 -14.80078125 28.26820313 -15 29 C-15.99 29 -16.98 29 -18 29 C-16.65901876 19.57874719 -9.49100445 9.78215769 -3 3 C-2.34 3 -1.68 3 -1 3 C-0.67 2.01 -0.34 1.02 0 0 Z " fill="#7ADBA8" transform="translate(26,355)"/>
<path d="M0 0 C8.64958856 12.97438285 6.6020678 32.41981842 4 47 C3.67 47 3.34 47 3 47 C3.01571045 46.17387207 3.0314209 45.34774414 3.04760742 44.49658203 C3.09922737 41.38413888 3.13658622 38.27191642 3.16479492 35.15917969 C3.18701479 33.16847095 3.22516595 31.17796032 3.26367188 29.1875 C3.31520502 22.38512529 3.05272274 16.51714798 0.66796875 10.10742188 C-0.41505559 6.69051174 -0.19747351 3.55452319 0 0 Z " fill="#F5BDA4" transform="translate(330,54)"/>
<path d="M0 0 C4.57168779 0.45716878 7.94051868 0.8349433 12 3 C13.99110401 3.38290462 15.99100513 3.72604615 18 4 C18 4.66 18 5.32 18 6 C20.31 6 22.62 6 25 6 C25 6.66 25 7.32 25 8 C27.97 8.495 27.97 8.495 31 9 C31 9.33 31 9.66 31 10 C26.9472484 10.98248524 23.16138263 11.08159574 19 11 C20.32 10.34 21.64 9.68 23 9 C21.84242187 8.67386719 20.68484375 8.34773438 19.4921875 8.01171875 C17.95303666 7.57062064 16.41397905 7.12919711 14.875 6.6875 C13.73417969 6.36749023 13.73417969 6.36749023 12.5703125 6.04101562 C8.1105409 4.75306434 4.0997028 3.23322469 0 1 C0 0.67 0 0.34 0 0 Z " fill="#A985EE" transform="translate(47,323)"/>
<path d="M0 0 C-1.65 0.33 -3.3 0.66 -5 1 C-5.33 1.99 -5.66 2.98 -6 4 C-8.58203125 5.28125 -8.58203125 5.28125 -11.8125 6.5 C-15.66643598 7.96458956 -18.8213058 9.35237093 -22 12 C-23.32 11.34 -24.64 10.68 -26 10 C-6.44606947 -2.14868982 -6.44606947 -2.14868982 0 0 Z " fill="#76D9A7" transform="translate(65,335)"/>
<path d="M0 0 C1.74948531 2.62422797 2.57610997 4.43261109 3.5 7.375 C4.31277305 9.92058869 5.1467673 12.34760676 6.1875 14.8125 C7 17 7 17 7 21 C7.66 21 8.32 21 9 21 C9.99 24.3 10.98 27.6 12 31 C5.52735525 24.52735525 -0.13871406 12.80185288 -0.1875 3.5 C-0.125625 2.345 -0.06375 1.19 0 0 Z " fill="#5EC9F1" transform="translate(170,265)"/>
<path d="M0 0 C0 6.23356309 -2.75709084 11.97618995 -5.94921875 17.2265625 C-7.82185454 20.38707049 -9.3809916 23.70416146 -11 27 C-12.33563506 22.99309482 -10.97749528 20.59489936 -9.4375 16.875 C-9.16663574 16.20718506 -8.89577148 15.53937012 -8.61669922 14.85131836 C-6.3537752 9.45747267 -3.55790935 4.65556224 0 0 Z " fill="#59CAF0" transform="translate(182,201)"/>
<path d="M0 0 C12.07612319 0.38397848 21.39849206 3.39920335 32 9 C30.02 9.99 30.02 9.99 28 11 C27.67 10.34 27.34 9.68 27 9 C25.01363702 8.29373761 23.01151741 7.63106429 21 7 C20.34 6.649375 19.68 6.29875 19 5.9375 C16.39155804 4.71479283 13.83998588 4.3872708 11 4 C11 3.34 11 2.68 11 2 C9.9275 2.04125 8.855 2.0825 7.75 2.125 C4.22276513 2.0074255 2.938927 1.65152093 0 0 Z " fill="#57C8F2" transform="translate(261,167)"/>
<path d="M0 0 C-7.91719791 4.00265332 -15.15163667 6.97153292 -24 8 C-24 7.34 -24 6.68 -24 6 C-23.01 6 -22.02 6 -21 6 C-21 5.34 -21 4.68 -21 4 C-20.10796875 3.80664062 -19.2159375 3.61328125 -18.296875 3.4140625 C-17.12640625 3.15367187 -15.9559375 2.89328125 -14.75 2.625 C-13.58984375 2.36976563 -12.4296875 2.11453125 -11.234375 1.8515625 C-8.094155 1.15876403 -8.094155 1.15876403 -5.828125 -0.1640625 C-3.50446308 -1.22659167 -2.35634766 -0.84155274 0 0 Z " fill="#65D399" transform="translate(126,489)"/>
<path d="M0 0 C0.66 0.33 1.32 0.66 2 1 C1.13330726 7.28352233 -0.87525238 12.05675649 -4 17.5 C-4.35642578 18.12342285 -4.71285156 18.7468457 -5.08007812 19.38916016 C-7.7253825 23.86269125 -7.7253825 23.86269125 -10 25 C-10.33 23.35 -10.66 21.7 -11 20 C-10.01 20 -9.02 20 -8 20 C-8 19.34 -8 18.68 -8 18 C-7.34 18 -6.68 18 -6 18 C-6 16.02 -6 14.04 -6 12 C-5.34 12 -4.68 12 -4 12 C-3.67 11.01 -3.34 10.02 -3 9 C-2.34 9 -1.68 9 -1 9 C-0.67 6.03 -0.34 3.06 0 0 Z " fill="#77DBA9" transform="translate(163,439)"/>
<path d="M0 0 C0.66 0.33 1.32 0.66 2 1 C1.34 2.32 0.68 3.64 0 5 C-0.99 5 -1.98 5 -3 5 C-3.23460937 5.62390625 -3.46921875 6.2478125 -3.7109375 6.890625 C-5.36823075 9.60255941 -6.6141599 9.88975997 -9.625 10.75 C-10.85089844 11.11351562 -10.85089844 11.11351562 -12.1015625 11.484375 C-13.04128906 11.73960938 -13.04128906 11.73960938 -14 12 C-10.0679294 6.67267854 -5.61946506 3.4524818 0 0 Z " fill="#F37276" transform="translate(42,10)"/>
<path d="M0 0 C1.32 0.33 2.64 0.66 4 1 C4 1.99 4 2.98 4 4 C5.32 4 6.64 4 8 4 C8.12375 5.175625 8.12375 5.175625 8.25 6.375 C8.72806339 9.14749104 8.72806339 9.14749104 11.0625 10.3125 C11.701875 10.539375 12.34125 10.76625 13 11 C12.67 12.32 12.34 13.64 12 15 C7.02782124 10.3536679 3.05409511 6.10819022 0 0 Z " fill="#53C9F2" transform="translate(182,296)"/>
<path d="M0 0 C0.33 0 0.66 0 1 0 C1.12117187 0.62648438 1.24234375 1.25296875 1.3671875 1.8984375 C1.53476562 2.71570313 1.70234375 3.53296875 1.875 4.375 C2.03742187 5.18710937 2.19984375 5.99921875 2.3671875 6.8359375 C2.86658932 9.18673923 2.86658932 9.18673923 5 11 C5.4140625 14.0390625 5.4140625 14.0390625 5.625 17.625 C5.69976563 18.81351562 5.77453125 20.00203125 5.8515625 21.2265625 C5.92503906 22.59941406 5.92503906 22.59941406 6 24 C3.32132393 21.32132393 2.80419363 18.3744089 1.875 14.8125 C1.69324219 14.16474609 1.51148438 13.51699219 1.32421875 12.84960938 C0.16186595 8.47549225 -0.17561531 4.51331346 0 0 Z " fill="#AE8BF0" transform="translate(2,256)"/>
<path d="M0 0 C2.64 0.33 5.28 0.66 8 1 C8 1.66 8 2.32 8 3 C9.32 2.67 10.64 2.34 12 2 C12.99 3.98 13.98 5.96 15 8 C10.96522658 7.41841104 8.14758799 6.13243941 4.6875 4 C3.80449219 3.46375 2.92148437 2.9275 2.01171875 2.375 C1.34785156 1.92125 0.68398438 1.4675 0 1 C0 0.67 0 0.34 0 0 Z " fill="#F28080" transform="translate(39,152)"/>
<path d="M0 0 C0.825 0.144375 1.65 0.28875 2.5 0.4375 C6.32686278 1.05253152 10.15216707 1.53560637 14 2 C14 2.66 14 3.32 14 4 C16.64 4 19.28 4 22 4 C22.33 4.99 22.66 5.98 23 7 C18.07996715 6.38736433 13.47000952 5.42379433 8.6875 4.0625 C7.47449219 3.72347656 6.26148438 3.38445312 5.01171875 3.03515625 C2 2 2 2 0 0 Z " fill="#84DEAE" transform="translate(50,491)"/>
<path d="M0 0 C3.10555255 0.27797578 6.20902942 0.57473642 9.3125 0.875 C10.63411133 0.99294922 10.63411133 0.99294922 11.98242188 1.11328125 C12.82998047 1.19707031 13.67753906 1.28085938 14.55078125 1.3671875 C15.33106689 1.44050293 16.11135254 1.51381836 16.9152832 1.58935547 C19 2 19 2 22 4 C19 6 19 6 16.76953125 5.75390625 C13.40164429 4.83711897 10.0401845 3.9088385 6.6875 2.9375 C4.80611328 2.39416016 4.80611328 2.39416016 2.88671875 1.83984375 C1.93410156 1.56269531 0.98148438 1.28554687 0 1 C0 0.67 0 0.34 0 0 Z " fill="#E86B6A" transform="translate(57,161)"/>
<path d="M0 0 C0.66 0 1.32 0 2 0 C1.1875 3.4375 1.1875 3.4375 0 7 C-0.99 7.33 -1.98 7.66 -3 8 C-3.33 9.98 -3.66 11.96 -4 14 C-4.66 14 -5.32 14 -6 14 C-6.33 15.65 -6.66 17.3 -7 19 C-8.30348086 15.08955743 -7.35619721 13.79644696 -5.75 10.0625 C-5.31171875 9.02222656 -4.8734375 7.98195312 -4.421875 6.91015625 C-3.14644385 4.29972711 -1.93620609 2.16001486 0 0 Z " fill="#AB89F1" transform="translate(13,207)"/>
<path d="M0 0 C2 2 2 2 3 5 C3.66 5.33 4.32 5.66 5 6 C5 6.66 5 7.32 5 8 C5.66 8 6.32 8 7 8 C8.5625 10.8125 8.5625 10.8125 10 14 C9.67 14.99 9.34 15.98 9 17 C0.64232136 6.48993289 0.64232136 6.48993289 -1 3 C-0.67 2.01 -0.34 1.02 0 0 Z " fill="#F07E7C" transform="translate(12,120)"/>
<path d="M0 0 C0.33 0.66 0.66 1.32 1 2 C0.0498777 3.42518346 -0.90148335 4.84955806 -1.859375 6.26953125 C-2.94923152 7.92297796 -3.97643301 9.61721717 -5 11.3125 C-7 14 -7 14 -9.25 14.875 C-9.8275 14.91625 -10.405 14.9575 -11 15 C-9.58319756 10.67953102 -7.46236215 7.99538801 -4.375 4.6875 C-3.55773437 3.80449219 -2.74046875 2.92148438 -1.8984375 2.01171875 C-0.95871094 1.01591797 -0.95871094 1.01591797 0 0 Z " fill="#B292F2" transform="translate(26,189)"/>
<path d="M0 0 C8.89397012 -0.47271101 18.39019082 -0.07320612 26 5 C23.03 5 20.06 5 17 5 C17 4.34 17 3.68 17 3 C11.33861055 2.27945952 5.67355671 1.61726196 0 1 C0 0.67 0 0.34 0 0 Z " fill="#F5A07A" transform="translate(256,0)"/>
<path d="M0 0 C0.66 0 1.32 0 2 0 C1.67 1.32 1.34 2.64 1 4 C0.34 4 -0.32 4 -1 4 C-1.2475 4.721875 -1.495 5.44375 -1.75 6.1875 C-3.10983674 9.24713266 -4.82917754 11.4673738 -7 14 C-7.66 13.67 -8.32 13.34 -9 13 C-7.63312778 9.01328937 -5.84804907 6.11505367 -3 3 C-2.34 3 -1.68 3 -1 3 C-0.67 2.01 -0.34 1.02 0 0 Z " fill="#6BD69F" transform="translate(26,355)"/>
<path d="M0 0 C1.07174763 3.65188082 0.76411467 6.26432828 0 10 C-0.66 10 -1.32 10 -2 10 C-2 11.98 -2 13.96 -2 16 C-2.99 16.33 -3.98 16.66 -5 17 C-4.53444296 10.59859065 -2.85288164 5.73230171 0 0 Z " fill="#EF7C7E" transform="translate(9,47)"/>
<path d="M0 0 C0.33 0 0.66 0 1 0 C1 1.98 1 3.96 1 6 C0.34 6 -0.32 6 -1 6 C-1 14.58 -1 23.16 -1 32 C-1.33 32 -1.66 32 -2 32 C-2.05802751 27.41671978 -2.09360593 22.83353396 -2.125 18.25 C-2.14175781 16.94804687 -2.15851563 15.64609375 -2.17578125 14.3046875 C-2.18222656 13.05429688 -2.18867188 11.80390625 -2.1953125 10.515625 C-2.20578613 9.36352539 -2.21625977 8.21142578 -2.22705078 7.02441406 C-2.00758762 4.10107034 -1.52728122 2.46267491 0 0 Z " fill="#14B0F7" transform="translate(172,224)"/>
<path d="M0 0 C3.915141 3.35583515 6.0795774 7.28066362 8 12 C8 12.66 8 13.32 8 14 C6.68 14 5.36 14 4 14 C3.67 11.36 3.34 8.72 3 6 C2.34 6 1.68 6 1 6 C0.67 4.02 0.34 2.04 0 0 Z " fill="#F29B72" transform="translate(320,35)"/>
<path d="M0 0 C4.09501116 1.43474844 7.2603761 3.43465486 10.75 6 C11.71421875 6.70125 12.6784375 7.4025 13.671875 8.125 C16 10 16 10 17 12 C14.97954558 11.39816251 12.97888961 10.72693904 11 10 C10.67 9.34 10.34 8.68 10 8 C9.21625 7.690625 8.4325 7.38125 7.625 7.0625 C4.98236868 5.99286351 3.88618897 5.0576607 2 3 C1.01 2.34 0.02 1.68 -1 1 C-0.67 0.67 -0.34 0.34 0 0 Z " fill="#F4AD8C" transform="translate(291,9)"/>
<path d="M0 0 C-0.33 0.66 -0.66 1.32 -1 2 C-0.01 2.33 0.98 2.66 2 3 C-0.9615696 4.4807848 -3.83506295 4.35314037 -7.125 4.5625 C-8.40632813 4.64628906 -9.68765625 4.73007813 -11.0078125 4.81640625 C-11.99523438 4.87699219 -12.98265625 4.93757812 -14 5 C-11.38991565 2.91661429 -9.00472567 1.41620956 -5.875 0.25 C-5.19179688 -0.01296875 -4.50859375 -0.2759375 -3.8046875 -0.546875 C-2 -1 -2 -1 0 0 Z " fill="#A47FF4" transform="translate(61,170)"/>
<path d="M0 0 C0.99 0.33 1.98 0.66 3 1 C0.36 4.63 -2.28 8.26 -5 12 C-5.66 11.67 -6.32 11.34 -7 11 C-6.34 9.02 -5.68 7.04 -5 5 C-4.34 5 -3.68 5 -3 5 C-3 4.01 -3 3.02 -3 2 C-2.01 1.34 -1.02 0.68 0 0 Z " fill="#F5A27F" transform="translate(319,128)"/>
<path d="M0 0 C-8.06524596 3.39589303 -15.38261147 3.30654742 -24 3 C-24 2.67 -24 2.34 -24 2 C-23.14277344 1.95101562 -22.28554688 1.90203125 -21.40234375 1.8515625 C-14.06852046 1.46747919 -14.06852046 1.46747919 -6.9375 -0.125 C-3.88804689 -1.03334774 -2.92064572 -0.89189611 0 0 Z " fill="#F2956D" transform="translate(282,161)"/>
<path d="M0 0 C-2.45523336 3.68285005 -3.7847925 3.94619813 -8 5 C-11.375 5.125 -11.375 5.125 -14 5 C-12.53698952 2.07397905 -10.58977236 1.90294791 -7.5625 0.8125 C-6.57378906 0.44769531 -5.58507812 0.08289063 -4.56640625 -0.29296875 C-2 -1 -2 -1 0 0 Z " fill="#56C9F3" transform="translate(227,170)"/>
<path d="M0 0 C-0.66 0.66 -1.32 1.32 -2 2 C-1.01 2.66 -0.02 3.32 1 4 C-9.55808656 3.03644647 -9.55808656 3.03644647 -14 2 C-14 1.67 -14 1.34 -14 1 C-9.23692563 0.04738513 -4.8333472 -0.08333357 0 0 Z " fill="#DBD7D2" transform="translate(270,164)"/>
<path d="M0 0 C-3.63719605 2.42479736 -5.85703482 2.38662577 -10.1875 2.625 C-11.45980469 2.69976562 -12.73210938 2.77453125 -14.04296875 2.8515625 C-15.01878906 2.90054687 -15.99460938 2.94953125 -17 3 C-14.64692187 0.64692187 -13.40319353 0.45371025 -10.1875 -0.1875 C-9.33542969 -0.36667969 -8.48335937 -0.54585938 -7.60546875 -0.73046875 C-4.82841864 -1.0177498 -2.69337804 -0.68180665 0 0 Z " fill="#F08283" transform="translate(75,1)"/>
<path d="M0 0 C-2.28363378 2.28363378 -3.74795468 2.7152849 -6.8125 3.625 C-8.09060547 4.01558594 -8.09060547 4.01558594 -9.39453125 4.4140625 C-12.01979166 5.0044509 -14.31920637 5.10588413 -17 5 C-14 3 -14 3 -11 3 C-11 2.34 -11 1.68 -11 1 C-7.27569643 0.30710631 -3.78916254 -0.11144596 0 0 Z " fill="#6FD1F3" transform="translate(283,326)"/>
<path d="M0 0 C2.97 0.495 2.97 0.495 6 1 C6.33 1.99 6.66 2.98 7 4 C8.65 4 10.3 4 12 4 C12.33 4.99 12.66 5.98 13 7 C7.83572624 5.7605743 4.24563172 4.21011179 0 1 C0 0.67 0 0.34 0 0 Z " fill="#68CEF2" transform="translate(206,319)"/>
<path d="M0 0 C3.54905382 0.60840923 6.80087037 1.31157047 10 3 C10.8125 5.125 10.8125 5.125 11 7 C6.00724943 5.72278474 3.42388092 3.82669043 0 0 Z " fill="#AF8DF2" transform="translate(36,316)"/>
<path d="M0 0 C5.08938811 1.59043379 8.87456643 4.7446951 13 8 C10 9 10 9 7 8 C7 7.01 7 6.02 7 5 C5.5459375 4.5978125 5.5459375 4.5978125 4.0625 4.1875 C3.051875 3.795625 2.04125 3.40375 1 3 C0.67 2.01 0.34 1.02 0 0 Z " fill="#64D0F5" transform="translate(293,177)"/>
<path d="M0 0 C-1.78710586 0.86366822 -3.5798465 1.71568594 -5.375 2.5625 C-6.37273437 3.03816406 -7.37046875 3.51382812 -8.3984375 4.00390625 C-9.25695312 4.33261719 -10.11546875 4.66132813 -11 5 C-11.66 4.67 -12.32 4.34 -13 4 C-11.72807637 1.45615274 -10.80051531 1.30631844 -8.1875 0.3125 C-7.50042969 0.04050781 -6.81335938 -0.23148437 -6.10546875 -0.51171875 C-3.70623504 -1.06812731 -2.3105636 -0.77364938 0 0 Z " fill="#7ADAA8" transform="translate(126,489)"/>
<path d="M0 0 C0.66 1.32 1.32 2.64 2 4 C2.66 4 3.32 4 4 4 C4.33 5.98 4.66 7.96 5 10 C5.99 10.33 6.98 10.66 8 11 C7.34 12.32 6.68 13.64 6 15 C4.99267601 13.06629769 3.99436712 11.12789694 3 9.1875 C2.443125 8.10855469 1.88625 7.02960938 1.3125 5.91796875 C0 3 0 3 0 0 Z " fill="#81DEAF" transform="translate(7,444)"/>
<path d="M0 0 C5.37305699 0.88082902 5.37305699 0.88082902 8 2 C10 5.125 10 5.125 11 8 C6.40378078 6.5129879 3.53027653 4.20187872 0 1 C0 0.67 0 0.34 0 0 Z " fill="#64CEF7" transform="translate(195,311)"/>
<path d="M0 0 C6.47556391 0.61090226 6.47556391 0.61090226 8.9375 2.4375 C10 4 10 4 10 6 C5.56909529 4.79157144 3.01887244 3.48331435 0 0 Z " fill="#76D9A5" transform="translate(40,485)"/>
<path d="M0 0 C4.88958819 1.35821894 6.4904237 3.6978692 9 8 C9.33 8.66 9.66 9.32 10 10 C5.86360664 8.40907948 2.76786752 5.39525082 0 2 C0 1.34 0 0.68 0 0 Z " fill="#C1A2F5" transform="translate(22,303)"/>
<path d="M0 0 C2.0839403 0.11443603 4.16716493 0.24195547 6.25 0.375 C7.41015625 0.44460937 8.5703125 0.51421875 9.765625 0.5859375 C12.70694334 0.96248308 14.49949011 1.4774123 17 3 C17 3.33 17 3.66 17 4 C15.02 4 13.04 4 11 4 C11 3.34 11 2.68 11 2 C9.9275 2.04125 8.855 2.0825 7.75 2.125 C4.22276513 2.0074255 2.938927 1.65152093 0 0 Z " fill="#3EBCEA" transform="translate(261,167)"/>
<path d="M0 0 C3.26566506 4.89849759 3.09311493 8.31998909 3 14 C-0.13269705 10.86730295 -0.05494397 8.02671577 -0.0625 3.75 C-0.0315625 1.89375 -0.0315625 1.89375 0 0 Z " fill="#F29B77" transform="translate(330,54)"/>
<path d="M0 0 C3.19199167 2.41556126 5.74716687 4.68003538 8 8 C7.67 8.66 7.34 9.32 7 10 C2.57320993 8.52440331 2.08567304 6.09942632 0 2 C0 1.34 0 0.68 0 0 Z " fill="#F6A684" transform="translate(312,25)"/>
<path d="M0 0 C3.55007718 3.9050849 4.81819916 6.97734643 6 12 C1.30021142 9.10782241 1.30021142 9.10782241 0.4453125 5.953125 C0.21402785 3.97669255 0.09937182 1.98743631 0 0 Z " fill="#60CCF2" transform="translate(322,205)"/>
<path d="M0 0 C7.81636537 1.91722169 7.81636537 1.91722169 10 5 C10 5.66 10 6.32 10 7 C5.56541027 5.6062718 3.12621626 3.39417765 0 0 Z " fill="#81DEAF" transform="translate(30,478)"/>
<path d="M0 0 C0.66 0.33 1.32 0.66 2 1 C-1.07999946 4.67230705 -3.2482602 5.56802365 -8 6 C-5.54080489 3.3651481 -3.42227589 1.25483449 0 0 Z " fill="#B193F0" transform="translate(45,175)"/>
<path d="M0 0 C1.32 0.33 2.64 0.66 4 1 C4 1.66 4 2.32 4 3 C5.32 3 6.64 3 8 3 C8 4.32 8 5.64 8 7 C5.05043472 5.63055898 2.47531189 4.12169591 0 2 C0 1.34 0 0.68 0 0 Z " fill="#F07E83" transform="translate(28,143)"/>
<path d="M0 0 C1.2065625 0.0309375 1.2065625 0.0309375 2.4375 0.0625 C2.1075 1.0525 1.7775 2.0425 1.4375 3.0625 C0.7775 3.0625 0.1175 3.0625 -0.5625 3.0625 C-0.5625 3.7225 -0.5625 4.3825 -0.5625 5.0625 C-1.5525 5.3925 -2.5425 5.7225 -3.5625 6.0625 C-3.605221 4.39638095 -3.60313832 2.72867115 -3.5625 1.0625 C-2.5625 0.0625 -2.5625 0.0625 0 0 Z " fill="#F69B77" transform="translate(309.5625,139.9375)"/>
<path d="M0 0 C0.33 1.32 0.66 2.64 1 4 C-0.98 4.99 -0.98 4.99 -3 6 C-3 6.99 -3 7.98 -3 9 C-3.99 9.33 -4.98 9.66 -6 10 C-4.6302836 6.00499382 -2.74277578 3.19990508 0 0 Z " fill="#F18D8D" transform="translate(19,31)"/>
<path d="M0 0 C3.82097239 0.53069061 6.06171403 1.49701566 9 4 C5.71023192 5.09658936 4.28696233 4.79953138 1 4 C0.67 2.68 0.34 1.36 0 0 Z " fill="#F4A480" transform="translate(282,5)"/>
<path d="M0 0 C0 0.99 0 1.98 0 3 C-1.75 4.75 -1.75 4.75 -4 6 C-6.25 5.6875 -6.25 5.6875 -8 5 C-2.25 0 -2.25 0 0 0 Z " fill="#75D8A6" transform="translate(39,346)"/>
<path d="M0 0 C0 3.20395416 -0.74335022 5.09399739 -2 8 C-2.66 8 -3.32 8 -4 8 C-4 8.99 -4 9.98 -4 11 C-4.66 11 -5.32 11 -6 11 C-4.54955729 6.89041233 -2.48889248 3.56741255 0 0 Z " fill="#74D5F5" transform="translate(182,201)"/>
<path d="M0 0 C0.33 0.66 0.66 1.32 1 2 C-0.4726862 5.27263601 -1.42695432 6.72014048 -4.6875 8.3125 C-5.450625 8.539375 -6.21375 8.76625 -7 9 C-5.44499019 5.18315774 -2.96404505 2.80804268 0 0 Z " fill="#F38587" transform="translate(27,22)"/>
<path d="M0 0 C0.66 0 1.32 0 2 0 C0.25 7.625 0.25 7.625 -2 11 C-2.28571429 3.57142857 -2.28571429 3.57142857 0 0 Z " fill="#64CDF1" transform="translate(329,273)"/>
<path d="M0 0 C-1.28524261 0.86380259 -2.57842419 1.71580369 -3.875 2.5625 C-4.59429687 3.03816406 -5.31359375 3.51382813 -6.0546875 4.00390625 C-6.69664062 4.33261719 -7.33859375 4.66132813 -8 5 C-8.66 4.67 -9.32 4.34 -10 4 C-8.34655494 1.30227385 -7.50773114 0.16098792 -4.4375 -0.8125 C-2 -1 -2 -1 0 0 Z " fill="#F5B392" transform="translate(298,153)"/>
<path d="M0 0 C0.66 0 1.32 0 2 0 C1.8125 1.8125 1.8125 1.8125 1 4 C-1.5625 5.75 -1.5625 5.75 -4 7 C-4 6.01 -4 5.02 -4 4 C-3.34 4 -2.68 4 -2 4 C-1.67 3.01 -1.34 2.02 -1 1 C-0.67 0.67 -0.34 0.34 0 0 Z " fill="#62D197" transform="translate(138,476)"/>
<path d="M0 0 C0.99 0 1.98 0 3 0 C3.28875 0.969375 3.5775 1.93875 3.875 2.9375 C4.64214682 6.10664203 4.64214682 6.10664203 7 7 C6.01 7 5.02 7 4 7 C0 2.65714286 0 2.65714286 0 0 Z " fill="#86DFB0" transform="translate(14,459)"/>
<path d="M0 0 C2.31 0.33 4.62 0.66 7 1 C4.60490662 3.89932357 2.68754757 4.50168276 -1 5 C-0.67 3.35 -0.34 1.7 0 0 Z " fill="#51C7F4" transform="translate(284,321)"/>
<path d="M0 0 C0 4.61538462 0 4.61538462 -1 7 C-3.5625 8.25 -3.5625 8.25 -6 9 C-4.47291037 5.56404834 -2.40072955 2.88087546 0 0 Z " fill="#66D3F4" transform="translate(189,192)"/>
<path d="M0 0 C0.66 0.33 1.32 0.66 2 1 C1.360625 1.78375 0.72125 2.5675 0.0625 3.375 C-1.98142313 5.79539281 -1.98142313 5.79539281 -3 8 C-4.32 7.67 -5.64 7.34 -7 7 C-4.69 4.69 -2.38 2.38 0 0 Z " fill="#6DD4F4" transform="translate(197,184)"/>
<path d="M0 0 C2.64 0 5.28 0 8 0 C8.33 0.99 8.66 1.98 9 3 C2.25 2.25 2.25 2.25 0 0 Z " fill="#67D39A" transform="translate(64,495)"/>
<path d="M0 0 C0 0.99 0 1.98 0 3 C-0.99 3.66 -1.98 4.32 -3 5 C-4.32 4.34 -5.64 3.68 -7 3 C-4.69 2.01 -2.38 1.02 0 0 Z " fill="#56D091" transform="translate(46,342)"/>
<path d="M0 0 C2.33944736 0.28730055 4.6739143 0.61936779 7 1 C7 1.33 7 1.66 7 2 C2.9472484 2.98248524 -0.83861737 3.08159574 -5 3 C-4.360625 2.690625 -3.72125 2.38125 -3.0625 2.0625 C-1.06389179 1.1654837 -1.06389179 1.1654837 0 0 Z " fill="#BDECE3" transform="translate(71,331)"/>
<path d="M0 0 C1.9453125 -0.29296875 1.9453125 -0.29296875 4.125 -0.1875 C5.40375 -0.125625 6.6825 -0.06375 8 0 C4.55549263 2.29633824 2.06187717 2.54016485 -2 3 C-1.34 2.01 -0.68 1.02 0 0 Z " fill="#3ABCEB" transform="translate(261,329)"/>
<path d="M0 0 C0.66 0 1.32 0 2 0 C3.60725635 3.21451269 3.05748185 6.43612536 3 10 C0.70366176 6.55549263 0.45983515 4.06187717 0 0 Z " fill="#F19192" transform="translate(4,102)"/>
<path d="M0 0 C1.46534385 3.80989402 0.55203911 6.3241179 -1 10 C-1.99 10.495 -1.99 10.495 -3 11 C-2.44894091 7.0507432 -1.61064629 3.65079826 0 0 Z " fill="#8DE0B7" transform="translate(7,384)"/>
<path d="M0 0 C1 3 1 3 0.0625 5.1875 C-0.4634375 6.0846875 -0.4634375 6.0846875 -1 7 C-1.99 7 -2.98 7 -4 7 C-2.92598892 4.08482708 -2.22189824 2.22189824 0 0 Z " fill="#09B4F5" transform="translate(198,185)"/>
<path d="M0 0 C6.0546875 -0.1953125 6.0546875 -0.1953125 8 0 C8.66 0.66 9.32 1.32 10 2 C5.94568308 3.15837626 3.78187881 2.83691257 0 1 C0 0.67 0 0.34 0 0 Z " fill="#F2AEC5" transform="translate(67,164)"/>
<path d="M0 0 C0.99 0.33 1.98 0.66 3 1 C4.1875 3.5625 4.1875 3.5625 5 6 C3.35 5.67 1.7 5.34 0 5 C0 3.35 0 1.7 0 0 Z " fill="#F3686B" transform="translate(49,154)"/>
<path d="M0 0 C0.33 0.66 0.66 1.32 1 2 C3.02463255 2.65213292 3.02463255 2.65213292 5 3 C3.35 4.32 1.7 5.64 0 7 C-0.66 6.67 -1.32 6.34 -2 6 C-1.34 4.02 -0.68 2.04 0 0 Z " fill="#F7A787" transform="translate(300,145)"/>
<path d="M0 0 C0.33 0.66 0.66 1.32 1 2 C0.22265625 3.7265625 0.22265625 3.7265625 -0.9375 5.625 C-1.618125 6.73875 -2.29875 7.8525 -3 9 C-3.66 7.68 -4.32 6.36 -5 5 C-4.01 5 -3.02 5 -2 5 C-2 3.68 -2 2.36 -2 1 C-1.34 0.67 -0.68 0.34 0 0 Z " fill="#F5B294" transform="translate(326,119)"/>
<path d="M0 0 C0.66 0.33 1.32 0.66 2 1 C1.4375 2.9375 1.4375 2.9375 0 5 C-3.625 5.75 -3.625 5.75 -7 6 C-4.83312509 3.72478134 -2.54379491 1.84205838 0 0 Z " fill="#F3918E" transform="translate(42,10)"/>
<path d="M0 0 C-4.75 3 -4.75 3 -7 3 C-7 2.34 -7 1.68 -7 1 C-7.66 0.67 -8.32 0.34 -9 0 C-5.62182575 -0.84454356 -3.32534757 -1.10844919 0 0 Z " fill="#77DAA8" transform="translate(133,485)"/>
<path d="M0 0 C2.475 0.495 2.475 0.495 5 1 C5.33 2.65 5.66 4.3 6 6 C3.97945196 4.35830472 1.97956942 2.69088222 0 1 C0 0.67 0 0.34 0 0 Z " fill="#70D8A1" transform="translate(24,472)"/>
<path d="M0 0 C1.46726798 3.81489674 0.43336419 6.29011622 -1 10 C-1.33 10 -1.66 10 -2 10 C-2.1953125 3.9453125 -2.1953125 3.9453125 -2 2 C-1.34 1.34 -0.68 0.68 0 0 Z " fill="#3BC57B" transform="translate(6,393)"/>
<path d="M0 0 C0.66 1.32 1.32 2.64 2 4 C0.68 5.65 -0.64 7.3 -2 9 C-1.125 2.25 -1.125 2.25 0 0 Z " fill="#5CCDF3" transform="translate(325,282)"/>
</svg>
